<?xml version="1.0" standalone="no"?>
<!DOCTYPE svg PUBLIC "-//W3C//DTD SVG 20010904//EN"
 "http://www.w3.org/TR/2001/REC-SVG-20010904/DTD/svg10.dtd">
<svg version="1.0" xmlns="http://www.w3.org/2000/svg"
 width="2000.000000pt" height="2000.000000pt" viewBox="0 0 2000.000000 2000.000000"
 preserveAspectRatio="xMidYMid meet">
<metadata>
Created by potrace 1.11, written by Peter Selinger 2001-2013
</metadata>
<g transform="translate(0.000000,2000.000000) scale(0.100000,-0.100000)"
fill="#000000" stroke="none">
<path d="M0 10000 l0 -10000 10000 0 10000 0 0 10000 0 10000 -10000 0 -10000
0 0 -10000z m3380 5420 c492 -61 869 -279 1264 -730 150 -171 293 -355 888
-1145 310 -413 661 -876 779 -1030 118 -154 358 -469 534 -700 500 -659 630
-811 746 -869 61 -30 79 -32 119 -11 91 47 120 257 120 865 l0 345 -31 14
c-87 38 -91 161 -8 217 36 24 36 29 -1 60 -52 45 -49 129 6 173 l24 18 -7 212
-6 211 -74 0 c-94 0 -94 6 -4 143 l69 104 3 219 3 219 -31 33 c-45 47 -58 92
-58 207 0 127 23 182 95 227 40 25 49 36 54 67 5 36 47 186 61 224 6 13 2 17
-17 17 -37 0 -90 40 -116 88 -33 59 -41 176 -18 255 18 61 61 119 107 143 36
18 120 18 164 0 38 -16 41 -22 21 -49 -13 -17 -17 -17 -59 -3 -71 24 -123 2
-157 -68 -11 -23 -20 -55 -20 -70 l0 -28 34 21 c42 26 133 28 179 5 30 -16 32
-16 47 7 8 13 34 47 58 76 28 36 42 62 42 83 0 25 4 30 25 30 17 0 57 26 118
75 296 239 628 337 1142 338 226 1 350 -10 515 -44 267 -55 447 -141 731 -353
85 -62 178 -126 208 -141 129 -65 207 -44 426 116 373 272 616 365 1051 400
160 13 449 8 594 -11 343 -44 601 -148 823 -332 32 -26 65 -48 72 -48 14 0 65
-55 65 -71 0 -5 17 -32 37 -59 l36 -49 17 50 c18 53 58 102 102 125 35 18 119
18 163 0 38 -16 41 -22 21 -49 -13 -17 -17 -17 -59 -3 -71 24 -123 2 -157 -68
-11 -23 -20 -55 -20 -70 l0 -28 34 21 c46 29 136 29 182 1 63 -40 83 -156 36
-219 -28 -38 -81 -71 -113 -71 -34 0 -34 -1 -11 -71 11 -30 27 -88 36 -129 10
-41 20 -82 24 -90 17 -43 33 -256 38 -507 l6 -283 27 0 c43 0 94 -40 110 -86
27 -78 -5 -142 -112 -219 -22 -16 -28 -30 -33 -77 l-7 -58 82 0 c80 0 81 0 81
-25 0 -25 -1 -25 -79 -25 l-78 0 -5 -117 c-3 -65 -3 -207 0 -315 l5 -198 38 0
c35 0 39 -3 39 -25 0 -22 -4 -25 -40 -25 l-40 0 0 -55 c0 -42 -3 -55 -15 -55
-13 0 -15 -22 -15 -139 0 -77 -3 -146 -6 -155 -5 -14 7 -16 95 -16 l101 0 0
-25 0 -25 -100 0 -100 0 0 -57 0 -58 56 3 c30 2 69 -2 85 -8 118 -49 116 -244
-3 -306 -15 -8 -54 -14 -88 -14 l-60 0 0 -62 c0 -35 -3 -100 -7 -145 l-6 -83
39 0 c115 0 172 -130 99 -226 -15 -19 -51 -51 -80 -70 -44 -29 -54 -41 -59
-72 -12 -75 -16 -72 84 -72 89 0 90 0 90 -25 0 -25 -1 -25 -90 -25 l-90 0 0
-165 c0 -161 1 -165 19 -155 11 5 36 10 55 10 l36 0 0 -215 0 -215 40 0 c36 0
40 -2 40 -25 0 -25 0 -25 -95 -25 l-95 0 0 -151 0 -150 30 -25 c56 -48 57
-136 0 -186 -18 -17 -24 -28 -16 -28 22 0 64 -56 72 -95 8 -45 -11 -99 -47
-129 l-29 -25 0 -237 0 -238 57 82 c54 79 58 82 95 82 l38 0 0 -160 0 -160 40
0 c36 0 40 -2 40 -25 0 -22 -4 -25 -40 -25 l-40 0 0 -55 c0 -54 0 -55 -30 -55
-30 0 -30 1 -30 55 l0 55 -65 0 -65 0 0 -37 c1 -145 39 -403 60 -403 4 0 21 7
36 15 45 23 134 19 175 -8 66 -44 76 -143 22 -208 -31 -37 -28 -40 65 -64 116
-29 298 -34 861 -25 600 10 672 12 1161 40 533 30 606 32 770 20 334 -24 581
-105 789 -260 75 -56 261 -242 261 -260 0 -6 11 -10 25 -10 26 0 85 -25 85
-36 0 -15 -22 -44 -34 -44 -8 0 2 -29 30 -84 116 -222 173 -510 161 -813 l-5
-143 29 0 c24 0 29 -4 29 -25 0 -22 -4 -25 -33 -25 l-33 0 -18 -107 c-39 -234
-133 -471 -257 -655 -81 -119 -258 -296 -369 -370 -215 -142 -427 -217 -730
-260 -136 -19 -814 -16 -1200 5 -168 9 -420 22 -560 29 -269 13 -1329 16
-2465 8 -685 -5 -719 -4 -945 41 -331 66 -550 186 -880 482 -149 135 -222 170
-313 153 -31 -6 -35 -10 -41 -48 -9 -56 -51 -130 -89 -159 -27 -20 -45 -24
-110 -25 l-78 -1 -65 -53 c-259 -210 -532 -321 -886 -359 -122 -14 -474 -14
-593 -1 -388 43 -719 176 -1015 408 -57 45 -65 49 -68 32 -3 -19 -12 -20 -167
-20 l-164 0 6 37 c7 50 33 91 88 142 l45 42 -102 115 c-57 63 -104 110 -106
104 -2 -6 -45 -10 -107 -10 -117 0 -115 1 -115 -82 0 -44 2 -49 18 -42 31 14
113 16 143 4 118 -49 116 -244 -3 -306 -63 -33 -183 -10 -232 45 -20 22 -20
22 2 43 l22 22 28 -27 c84 -81 202 -39 202 72 0 26 -7 56 -15 68 -32 46 -122
48 -169 4 -14 -14 -29 -18 -44 -14 -20 5 -22 10 -18 47 3 22 8 80 12 128 l6
87 122 3 123 3 -121 152 -121 153 -97 0 c-98 0 -98 0 -98 25 0 23 4 25 45 25
l45 0 0 44 c0 39 -8 54 -74 140 l-74 96 -4 -93 c-5 -98 -19 -139 -67 -190 -38
-42 -73 -57 -130 -57 -52 0 -121 26 -121 44 0 6 7 19 14 29 14 18 16 18 40 1
35 -22 96 -23 130 0 29 18 59 77 70 133 l5 33 -39 -26 c-35 -23 -47 -26 -105
-22 -55 3 -69 8 -95 33 -57 54 -63 148 -14 213 37 47 76 64 143 60 l56 -3
-115 152 -115 153 -128 0 -128 0 7 38 c9 51 26 81 68 121 l35 34 -72 93 c-39
52 -74 94 -78 94 -3 0 -46 -85 -95 -190 l-88 -190 -34 0 c-23 0 -32 4 -29 13
3 6 46 100 96 209 50 108 91 199 91 202 0 3 -54 6 -120 6 l-120 0 0 25 0 25
115 0 114 0 -161 210 -162 210 -48 0 c-42 0 -48 3 -48 20 0 12 7 31 15 44 14
21 13 25 -18 65 l-32 42 -7 -71 c-7 -82 -43 -164 -86 -195 -21 -16 -43 -20
-99 -20 -66 0 -74 2 -103 30 -59 56 -74 98 -75 210 0 103 11 146 47 194 30 39
60 55 110 61 l47 5 -107 142 -107 142 -46 0 c-96 2 -156 77 -168 209 -6 73 -9
81 -54 140 -27 34 -50 62 -53 62 -2 0 -4 -79 -4 -175 l0 -175 40 0 c36 0 40
-2 40 -25 l0 -25 -120 0 -120 0 0 25 c0 23 4 25 45 25 l45 0 0 179 0 179 -46
-6 c-45 -5 -46 -5 -42 24 2 22 9 30 33 34 75 16 74 18 -15 126 -45 54 -105
123 -133 152 l-51 52 -78 0 c-76 0 -78 1 -78 24 0 23 5 25 48 28 l47 3 -52 28
c-151 79 -213 -20 -243 -388 -8 -87 -15 -603 -20 -1360 -5 -671 -11 -1233 -14
-1250 -3 -16 -10 -73 -16 -125 -30 -251 -100 -473 -208 -659 -19 -33 -25 -56
-23 -88 5 -89 -64 -172 -146 -173 -20 -1 -49 -19 -98 -61 -235 -203 -506 -310
-883 -350 -167 -17 -535 -7 -682 19 -297 54 -518 153 -719 325 -44 37 -89 67
-101 67 -36 0 -99 39 -116 71 -10 19 -14 47 -12 72 3 34 -3 53 -44 120 -91
151 -158 360 -195 607 -31 202 -24 875 20 1890 84 1940 85 2190 11 4565 -38
1210 -39 1495 -9 1720 46 345 147 594 329 808 53 62 55 67 33 67 -13 0 -40
-11 -60 -24 -35 -24 -36 -24 -53 -5 -16 18 -16 20 2 40 28 32 76 49 139 49 52
0 59 3 144 68 227 172 489 273 836 322 77 11 158 21 180 23 97 9 448 6 525 -3z
m11160 -1425 l0 -215 40 0 c36 0 40 -2 40 -25 l0 -25 -120 0 -120 0 0 25 c0
23 4 25 45 25 l45 0 0 180 0 180 -45 -7 c-44 -6 -45 -5 -45 21 0 15 6 28 13
30 6 2 26 8 42 14 17 5 47 10 68 11 l37 1 0 -215z"/>
<path d="M7915 14760 c-48 -10 -85 -39 -85 -66 0 -63 49 -124 100 -124 22 0
31 11 63 76 32 65 36 79 25 91 -20 19 -69 30 -103 23z"/>
<path d="M14181 14759 c-18 -4 -42 -16 -53 -27 -20 -19 -19 -20 16 -91 36 -70
37 -71 77 -71 46 0 88 34 90 72 5 96 -39 136 -130 117z"/>
<path d="M3389 14693 c-33 -4 -37 -7 -43 -41 -8 -50 -39 -98 -78 -122 -66 -40
-189 -20 -242 39 -20 22 -20 22 2 43 l22 22 28 -27 c55 -53 135 -55 177 -5 14
16 25 39 25 50 0 17 -5 19 -32 15 -337 -48 -348 -51 -348 -74 0 -20 5 -23 40
-23 36 0 40 -2 40 -25 l0 -25 -120 0 -120 0 0 25 c0 23 4 25 45 25 39 0 45 3
45 21 0 21 -3 22 -67 16 -38 -4 -85 -7 -105 -7 -38 0 -38 0 -38 -40 0 -38 -2
-40 -30 -40 -28 0 -30 2 -30 41 l0 42 -46 -7 c-26 -3 -98 -6 -160 -6 -69 0
-114 -4 -114 -10 0 -5 18 -10 40 -10 36 0 40 -2 40 -25 l0 -25 -120 0 c-104 0
-120 2 -120 16 0 14 -2 14 -16 3 -14 -11 -15 -34 -9 -183 6 -123 12 -177 22
-193 15 -22 14 -49 -3 -159 -4 -31 -1 -49 12 -69 20 -31 24 -115 7 -137 -8 -9
-8 -63 -1 -193 6 -99 10 -218 9 -265 -2 -62 3 -103 18 -150 24 -76 26 -109 8
-153 -10 -24 -12 -79 -9 -213 l4 -182 43 -4 c24 -3 57 -15 74 -27 36 -26 56
-86 42 -123 -10 -27 -65 -78 -84 -78 -7 -1 4 -9 23 -19 62 -33 85 -66 85 -121
0 -38 -6 -54 -25 -75 -29 -32 -78 -55 -115 -55 l-25 0 0 -144 0 -144 28 -7
c36 -8 86 -58 107 -108 37 -88 28 -240 -18 -309 -13 -18 -39 -44 -60 -57 l-37
-24 0 -146 0 -146 30 -17 c69 -39 76 -144 15 -216 -34 -39 -35 -43 -35 -121
l0 -81 40 0 c36 0 40 -2 40 -25 0 -23 -4 -25 -41 -25 l-40 0 6 -172 c7 -159 9
-177 34 -228 22 -48 26 -68 26 -150 0 -83 -3 -102 -27 -151 -27 -54 -28 -61
-28 -222 l0 -166 35 -17 c39 -18 40 -21 20 -48 -12 -16 -19 -18 -40 -8 l-25
12 0 -65 c0 -63 0 -64 35 -80 47 -23 79 -90 72 -152 -6 -53 -29 -88 -80 -122
l-37 -24 0 -87 c0 -48 -3 -115 -6 -149 l-7 -61 37 0 c47 0 47 -14 -2 -122
l-39 -83 -7 -190 c-3 -105 -9 -233 -13 -286 l-6 -96 39 -6 c102 -17 167 -174
135 -329 -20 -96 -87 -168 -157 -168 -40 0 -42 -8 -46 -177 l-3 -113 31 0 c81
0 145 -89 152 -210 9 -160 -70 -290 -177 -290 l-30 0 -3 -162 c-2 -125 0 -168
11 -186 20 -33 19 -97 -2 -119 -26 -30 -22 -82 11 -116 22 -23 27 -38 27 -77
0 -42 -5 -54 -33 -82 l-32 -34 0 -152 0 -152 56 0 c97 0 153 -41 157 -116 l2
-37 155 7 c85 4 159 11 165 17 15 15 -16 62 -48 70 -40 11 -92 -7 -121 -41
-22 -27 -27 -29 -50 -19 -25 12 -25 12 -8 41 27 47 89 78 154 78 72 0 117 -29
138 -88 11 -33 19 -42 37 -42 23 0 28 4 83 71 39 48 77 63 147 57 50 -4 60 -9
92 -45 20 -21 41 -47 46 -56 8 -13 31 -18 110 -23 l100 -6 39 61 c36 58 40 61
77 61 l39 0 0 -70 0 -70 70 0 c52 0 70 3 70 13 0 23 58 96 93 117 18 11 47 20
65 20 l32 0 0 205 0 205 -30 0 c-26 0 -30 4 -30 26 0 14 13 45 30 69 l30 44 0
188 c0 103 -3 225 -7 270 -5 76 -8 82 -29 85 l-24 3 25 53 c23 50 25 65 25
213 l0 159 -50 0 c-47 0 -50 2 -50 25 0 23 3 25 50 25 l50 0 0 150 0 150 -34
0 c-114 0 -189 182 -142 343 20 69 85 143 134 153 l32 7 0 77 c0 42 -3 118 -6
168 l-7 90 -29 -21 c-44 -32 -162 -37 -220 -8 -87 41 -103 136 -35 196 18 16
42 35 53 41 17 10 17 12 -13 28 -59 30 -78 96 -44 152 49 80 221 87 277 10 15
-19 16 -13 10 88 -3 60 -6 142 -6 183 l0 73 -42 0 c-55 0 -119 32 -142 71 -37
62 -5 137 80 185 17 10 17 12 -13 28 -35 18 -63 61 -63 98 0 58 71 118 139
118 l31 0 0 177 0 176 -22 -21 c-33 -30 -72 -42 -140 -42 -115 0 -186 58 -175
144 6 40 40 82 93 112 17 10 17 12 -13 28 -35 18 -63 61 -63 98 0 36 34 83 73
101 70 34 187 14 222 -37 13 -18 15 40 15 500 0 287 -3 549 -6 583 l-7 61 -63
0 c-62 0 -64 1 -64 25 0 23 4 25 45 25 l45 0 0 180 0 180 -45 -7 c-43 -5 -45
-5 -45 19 0 22 8 28 49 42 28 9 59 16 70 16 16 0 22 8 27 41 4 22 15 50 25 62
l19 22 37 -40 c21 -22 50 -55 65 -73 27 -32 28 -32 57 -17 38 19 133 19 171 0
43 -22 60 -53 60 -109 0 -43 -4 -53 -35 -82 -32 -30 -33 -33 -15 -39 30 -9 58
-51 65 -98 4 -23 19 -59 33 -81 l26 -38 9 33 c13 51 51 94 136 156 42 31 84
65 93 77 22 26 23 84 3 113 -30 43 -116 34 -159 -17 -22 -27 -27 -29 -50 -19
-25 12 -25 12 -8 41 42 72 167 102 240 58 63 -39 78 -135 31 -201 -10 -15 -55
-53 -100 -84 -69 -48 -119 -102 -119 -127 0 -5 56 -8 125 -8 l125 0 0 -25 0
-25 -150 0 -150 0 127 -167 c69 -93 128 -169 129 -171 1 -2 20 6 43 17 48 25
138 28 181 6 43 -22 60 -53 60 -109 0 -43 -4 -53 -34 -81 l-35 -32 24 -11 c40
-19 60 -59 58 -122 l-1 -56 168 -222 167 -221 24 25 c40 43 76 57 141 52 50
-4 63 -9 93 -38 51 -50 70 -108 70 -215 -1 -71 -6 -101 -24 -142 l-23 -52 129
-169 c93 -123 135 -171 153 -175 58 -12 111 -81 125 -162 5 -26 30 -69 69
-122 33 -45 63 -82 66 -82 6 -1 140 289 140 302 0 4 -54 7 -120 7 l-120 0 0
25 0 25 160 0 c151 0 160 -1 160 -19 0 -11 -38 -102 -85 -203 -47 -102 -85
-190 -85 -197 0 -7 60 -91 133 -186 l132 -175 55 0 c69 0 115 -26 137 -77 16
-39 12 -99 -9 -132 -10 -16 -1 -33 62 -115 40 -53 77 -93 81 -89 9 10 159 334
159 345 0 4 -54 8 -120 8 l-120 0 0 25 0 25 160 0 c151 0 160 -1 160 -19 0
-11 -45 -117 -100 -236 l-100 -218 152 -203 c84 -112 155 -204 158 -204 3 0
18 20 33 45 26 41 32 45 68 45 l39 0 0 -143 c0 -127 2 -146 18 -160 10 -10 29
-17 41 -17 19 0 22 -5 19 -30 -2 -25 21 -62 151 -235 l153 -205 74 0 c72 0 74
-1 74 -25 0 -24 -3 -25 -55 -25 l-56 0 92 -122 c51 -68 94 -125 95 -127 2 -2
19 9 37 25 19 16 42 34 53 40 17 10 16 12 -13 28 -59 30 -78 96 -44 152 50 82
226 86 278 7 37 -56 17 -122 -50 -163 l-28 -17 29 -12 c17 -7 43 -26 58 -42
40 -41 41 -114 4 -154 -33 -36 -79 -55 -135 -55 l-45 0 147 -197 148 -197 3
47 3 47 135 0 134 0 0 -25 c0 -24 -1 -24 -107 -27 l-108 -3 0 -60 c0 -49 3
-59 15 -56 8 3 40 7 70 9 45 3 61 -1 90 -20 66 -45 86 -131 50 -215 l-21 -51
117 -158 c105 -142 241 -295 261 -294 5 1 17 19 28 42 28 59 72 80 155 76 85
-4 125 -31 141 -94 13 -50 13 -50 140 -38 l65 7 38 58 c36 55 41 59 77 59 l39
0 0 -55 0 -55 105 0 c98 0 105 1 105 20 0 18 -5 19 -45 13 -43 -5 -45 -5 -45
19 0 22 8 28 49 42 28 9 64 16 80 16 l31 0 0 -60 0 -60 33 -1 c17 0 65 -4 106
-8 l73 -7 46 68 c43 64 47 68 83 68 l39 0 0 -70 0 -70 36 0 c49 0 87 25 116
74 21 38 23 55 26 204 l4 162 -55 0 c-102 0 -165 75 -175 210 -11 162 71 290
186 290 l42 0 0 145 0 145 -35 0 c-101 0 -175 106 -175 250 0 141 74 250 170
250 l30 0 0 151 0 151 -42 38 -42 37 27 18 c27 17 28 17 42 -1 13 -17 14 0 15
139 0 87 -4 156 -9 153 -4 -3 -17 4 -27 15 -19 21 -18 21 8 44 l27 23 -6 156
c-6 144 -8 156 -25 156 -26 0 -89 33 -112 59 -20 22 -20 22 1 43 l22 21 36
-31 c20 -18 45 -32 55 -32 19 0 20 7 20 105 0 117 -5 125 -59 79 -25 -21 -34
-23 -51 -14 -16 9 -20 18 -16 38 3 15 8 71 11 125 l7 97 54 0 54 0 0 155 0
155 -70 0 c-68 0 -70 1 -70 25 0 23 4 25 45 25 l45 0 0 180 0 180 -45 -7 c-43
-5 -45 -5 -45 19 0 22 8 28 49 42 28 9 57 16 65 16 14 0 16 26 16 210 l0 210
-80 0 c-79 0 -80 0 -80 25 0 15 35 77 85 153 l85 127 0 187 0 188 -45 0 c-41
0 -45 2 -45 25 0 23 4 25 45 25 l45 0 0 180 0 180 -45 -7 c-43 -5 -45 -5 -45
20 0 22 6 28 38 37 65 18 63 10 64 211 1 101 -2 200 -6 220 -6 27 -3 46 9 72
13 27 16 60 15 134 -1 54 1 185 5 291 l8 192 -112 0 -111 0 0 25 c0 23 4 25
45 25 l45 0 0 180 0 180 -45 -7 c-43 -5 -45 -5 -45 19 0 22 8 28 49 42 28 9
64 16 80 16 l31 0 0 -215 0 -215 33 0 34 0 6 198 c20 607 29 920 25 946 -2 23
-23 -14 -102 -188 l-99 -216 -33 0 c-40 0 -47 -21 70 229 47 102 86 188 86
193 0 4 -54 8 -120 8 l-120 0 0 25 0 25 159 0 159 0 6 73 c4 39 7 295 9 568 2
541 3 535 -55 565 -15 8 -31 14 -37 14 -5 0 -22 -27 -37 -60 -25 -56 -29 -60
-60 -60 -32 0 -33 1 -24 25 5 14 16 38 25 55 8 16 15 31 15 35 0 3 -34 5 -75
5 -71 0 -75 -1 -89 -27 -16 -32 -60 -75 -93 -92 -32 -16 -117 -13 -158 6 -38
18 -42 28 -21 56 14 18 16 18 40 1 37 -24 99 -23 132 2 56 41 46 47 -72 40
-144 -9 -184 -15 -184 -30 0 -18 -50 -63 -83 -75 -16 -6 -56 -11 -89 -11 -75
0 -136 27 -161 70 -25 41 -65 41 -89 0 -51 -89 -216 -95 -292 -11 -19 21 -19
22 4 46 l23 25 -47 0 c-36 0 -48 -4 -52 -17 -27 -84 -64 -108 -174 -109 l-85
-1 -3 -150 -2 -149 63 4 c107 7 168 -36 171 -117 1 -42 -18 -71 -67 -101 l-28
-17 29 -12 c17 -7 43 -26 58 -42 24 -25 29 -39 29 -79 0 -84 -63 -130 -180
-130 l-65 0 0 -145 0 -145 29 0 c78 0 142 -90 149 -210 8 -133 -44 -245 -128
-280 l-30 -12 0 -149 0 -149 95 0 c95 0 95 0 95 -25 0 -25 -1 -25 -90 -25
l-90 0 0 -55 0 -55 54 0 c39 0 62 -6 87 -23 126 -85 62 -307 -89 -307 l-45 0
7 -117 c3 -65 9 -205 12 -310 4 -106 11 -193 15 -193 11 0 12 -47 1 -52 -4 -2
-4 -101 0 -220 6 -178 10 -222 24 -243 23 -35 23 -98 0 -124 -23 -26 -15 -85
17 -119 32 -34 31 -111 -1 -145 -23 -25 -24 -26 -16 -186 l7 -161 34 0 c34 0
103 -26 103 -39 0 -3 -7 -14 -14 -24 -13 -17 -17 -17 -60 -3 -26 9 -51 16 -56
16 -6 0 -10 -31 -10 -70 l0 -70 31 0 c84 0 146 -77 136 -167 -2 -25 -14 -57
-24 -72 -27 -36 -81 -71 -109 -71 l-24 0 0 -143 0 -143 35 -13 c51 -18 75 -54
75 -114 0 -44 -4 -54 -34 -82 l-35 -32 24 -11 c37 -17 59 -59 59 -111 0 -59
-29 -103 -84 -127 l-40 -18 0 -153 0 -154 21 12 c13 6 47 9 80 7 69 -5 109
-35 141 -105 40 -89 32 -244 -15 -315 -49 -72 -145 -100 -217 -63 l-29 15 -6
-58 c-3 -31 -9 -75 -13 -96 l-7 -39 -93 106 -93 106 -36 -25 c-44 -29 -124
-33 -178 -7 -38 18 -42 28 -20 57 11 15 17 17 29 7 26 -22 79 -32 113 -20 54
18 57 31 18 83 -30 38 -42 46 -68 46 -18 0 -46 9 -64 20 -49 30 -66 63 -67
133 l-1 63 -145 192 -145 192 -47 0 c-49 0 -118 26 -118 44 0 6 7 20 15 30 11
15 17 17 29 7 8 -6 28 -16 45 -21 40 -11 43 -16 -122 200 l-133 175 -70 0 -69
0 -3 -64 c-3 -58 -1 -63 15 -55 10 4 43 10 73 12 92 6 148 -47 157 -148 5 -57
-28 -125 -76 -157 -65 -44 -190 -25 -245 36 -20 22 -20 22 2 43 l22 22 28 -27
c84 -81 202 -39 202 72 0 57 -20 87 -65 100 -42 11 -89 0 -121 -30 -18 -17
-26 -19 -44 -9 -16 9 -20 18 -16 38 3 15 8 71 11 124 l7 97 74 3 74 3 -119
155 c-90 118 -123 154 -137 151 -11 -2 -46 -5 -79 -8 -76 -6 -119 20 -154 91
-28 56 -39 170 -22 230 l10 40 -166 222 c-156 209 -168 222 -190 213 -43 -16
-143 -11 -188 11 -84 41 -99 135 -32 196 18 17 40 34 48 36 10 4 4 15 -22 39
-20 19 -40 45 -44 58 -5 18 -318 447 -372 510 -2 3 -16 -7 -31 -21 -40 -38
-65 -48 -117 -48 -55 0 -93 18 -129 60 -56 67 -72 210 -35 310 11 30 21 62 22
70 1 8 -71 110 -158 227 l-159 212 -32 -34 c-39 -43 -70 -55 -140 -55 -60 0
-114 22 -152 63 l-24 25 25 17 c24 15 26 15 50 -9 72 -72 207 -42 207 45 0 59
-28 82 -117 94 -47 6 -53 9 -53 31 0 20 5 24 29 24 17 0 33 4 36 10 3 5 -13
35 -36 65 -38 51 -43 54 -59 40 -15 -14 -18 -13 -35 5 -17 19 -17 21 0 40 17
19 12 26 -171 272 l-189 253 -16 -48 c-17 -52 -57 -100 -101 -123 -37 -19
-120 -18 -163 3 -38 18 -42 28 -21 56 14 18 16 18 40 1 35 -22 96 -23 129 -1
31 20 61 76 71 131 l7 38 -32 -23 c-47 -33 -141 -38 -186 -10 -47 30 -66 64
-67 124 0 62 25 112 72 142 17 11 30 23 29 27 -1 4 -55 79 -120 167 l-118 160
-32 -19 c-40 -25 -123 -26 -172 -3 -38 18 -42 28 -21 56 13 17 17 17 38 4 38
-24 75 -28 113 -13 19 8 35 18 35 22 0 3 -16 28 -36 55 -27 37 -42 49 -62 49
-15 0 -41 9 -59 20 -49 30 -66 63 -66 130 0 46 -5 65 -23 87 l-22 28 -44 -95
c-25 -52 -71 -152 -103 -222 -58 -126 -59 -128 -91 -128 -40 0 -47 -21 70 229
47 102 86 188 86 193 0 4 -54 8 -120 8 l-120 0 0 25 0 25 145 0 c80 0 145 3
145 6 0 4 -48 72 -107 153 -116 157 -125 168 -164 214 l-26 31 -33 -38 c-44
-49 -79 -66 -139 -66 -52 0 -121 26 -121 44 0 6 7 19 14 29 14 18 16 18 40 1
58 -38 139 -15 172 48 16 31 16 32 -6 50 -18 15 -39 18 -114 16 -50 -1 -107
-3 -127 -5z m-969 -488 c43 -22 60 -53 60 -109 0 -43 -4 -53 -34 -81 l-35 -32
24 -11 c59 -27 79 -130 37 -189 -61 -85 -221 -85 -300 0 l-24 25 25 17 c24 15
26 15 50 -9 72 -72 207 -42 207 45 0 59 -28 82 -117 94 -46 6 -53 10 -53 30 0
20 6 23 54 30 94 11 134 68 88 125 -28 34 -109 33 -155 -3 -34 -26 -35 -26
-52 -7 -15 16 -16 22 -5 35 42 50 168 72 230 40z m397 -1 c44 -22 65 -54 67
-103 1 -42 -18 -71 -67 -101 l-28 -17 29 -12 c17 -7 43 -26 58 -42 24 -25 29
-39 29 -79 0 -83 -63 -130 -177 -130 -115 0 -186 58 -175 144 6 40 40 82 93
112 17 10 17 12 -13 28 -35 18 -63 61 -63 98 0 35 33 82 71 101 44 21 131 22
176 1z m393 1 c43 -22 60 -53 60 -109 0 -43 -4 -53 -34 -81 l-35 -32 24 -11
c59 -27 79 -130 37 -189 -61 -85 -221 -85 -300 0 l-24 25 25 17 c24 15 26 15
50 -9 72 -72 207 -42 207 45 0 59 -28 82 -117 94 -46 6 -53 10 -53 30 0 20 6
23 54 30 94 11 134 68 88 125 -28 34 -109 33 -155 -3 -34 -26 -35 -26 -52 -7
-15 16 -16 22 -5 35 42 50 168 72 230 40z m398 -5 c63 -39 78 -135 31 -201
-10 -15 -55 -53 -100 -84 -69 -48 -119 -102 -119 -127 0 -5 56 -8 125 -8 l125
0 0 -25 0 -25 -165 0 -165 0 6 28 c13 57 17 68 41 100 14 18 59 58 102 89 42
31 84 65 93 77 22 26 23 84 3 113 -30 43 -116 34 -159 -17 -22 -27 -27 -29
-50 -19 -25 12 -25 12 -8 41 42 72 167 102 240 58z m5559 4 c44 -22 65 -54 67
-103 1 -42 -18 -71 -67 -101 l-28 -17 29 -12 c17 -7 43 -26 58 -42 24 -25 29
-39 29 -79 0 -83 -63 -130 -177 -130 -115 0 -186 58 -175 144 6 40 40 82 93
112 17 10 17 12 -13 28 -35 18 -63 61 -63 98 0 35 33 82 71 101 44 21 131 22
176 1z m1074 -7 c53 -36 82 -97 87 -187 7 -129 -38 -233 -119 -276 -38 -19
-120 -18 -164 3 -38 18 -42 28 -21 56 14 18 16 18 40 1 35 -22 96 -23 129 -1
31 20 61 76 71 131 l7 38 -32 -23 c-47 -33 -141 -38 -186 -10 -47 30 -66 64
-67 124 0 63 24 111 74 144 46 32 134 32 181 0z m-651 -147 l0 -160 40 0 c36
0 40 -2 40 -25 0 -22 -4 -25 -40 -25 l-40 0 0 -55 c0 -54 0 -55 -30 -55 -30 0
-30 1 -30 55 l0 55 -115 0 -115 0 0 25 c0 15 42 88 107 185 l106 160 39 0 38
0 0 -160z m280 -55 l0 -215 40 0 c36 0 40 -2 40 -25 l0 -25 -120 0 -120 0 0
25 c0 23 4 25 45 25 l45 0 0 180 0 180 -45 -7 c-43 -5 -45 -5 -45 20 0 21 8
28 43 40 23 8 59 15 80 16 l37 1 0 -215z m-7423 -581 c44 -22 65 -54 67 -103
1 -42 -18 -71 -67 -101 l-28 -17 29 -12 c17 -7 43 -26 58 -42 24 -25 29 -39
29 -79 0 -83 -63 -130 -177 -130 -115 0 -186 58 -175 144 6 40 40 82 93 112
17 10 17 12 -13 28 -35 18 -63 61 -63 98 0 35 33 82 71 101 44 21 131 22 176
1z m401 -4 c63 -39 78 -135 31 -201 -10 -15 -55 -53 -100 -84 -69 -48 -119
-102 -119 -127 0 -5 56 -8 125 -8 l125 0 0 -25 0 -25 -165 0 -165 0 6 28 c13
57 17 68 41 100 14 18 59 58 102 89 42 31 84 65 93 77 22 26 23 84 3 113 -30
43 -116 34 -159 -17 -22 -27 -27 -29 -50 -19 -25 12 -25 12 -8 41 42 72 167
102 240 58z m403 -15 c42 -40 68 -101 76 -177 15 -166 -61 -288 -179 -288 -57
0 -96 17 -132 60 -71 85 -74 287 -4 375 40 51 76 66 145 63 53 -3 68 -9 94
-33z m390 12 c53 -36 82 -97 87 -187 7 -129 -38 -233 -119 -276 -38 -19 -120
-18 -164 3 -38 18 -42 28 -21 56 14 18 16 18 40 1 35 -22 96 -23 129 -1 31 20
61 76 71 131 l7 38 -32 -23 c-47 -33 -141 -38 -186 -10 -47 30 -66 64 -67 124
0 63 24 111 74 144 46 32 134 32 181 0z m5457 3 c63 -39 78 -135 31 -201 -10
-15 -55 -53 -100 -84 -69 -48 -119 -102 -119 -127 0 -5 56 -8 125 -8 l125 0 0
-25 0 -25 -165 0 -165 0 6 28 c13 57 17 68 41 100 14 18 59 58 102 89 42 31
84 65 93 77 22 26 23 84 3 113 -30 43 -116 34 -159 -17 -22 -27 -27 -29 -50
-19 -25 12 -25 12 -8 41 42 72 167 102 240 58z m372 5 c43 -22 60 -53 60 -109
0 -43 -4 -53 -34 -81 l-35 -32 24 -11 c59 -27 79 -130 37 -189 -61 -85 -221
-85 -300 0 l-24 25 25 17 c24 15 26 15 50 -9 72 -72 207 -42 207 45 0 59 -28
82 -117 94 -46 6 -53 10 -53 30 0 20 6 23 54 30 94 11 134 68 88 125 -28 34
-109 33 -155 -3 -34 -26 -35 -26 -52 -7 -15 16 -16 22 -5 35 42 50 168 72 230
40z m431 -20 c42 -40 68 -101 76 -177 15 -166 -61 -288 -179 -288 -57 0 -96
17 -132 60 -71 85 -74 287 -4 375 40 51 76 66 145 63 53 -3 68 -9 94 -33z
m-5821 6 c0 -10 -46 -118 -102 -240 l-102 -221 -33 0 c-39 0 -46 -21 71 229
47 102 86 188 86 193 0 4 -54 8 -120 8 l-120 0 0 25 0 25 160 0 c150 0 160 -1
160 -19z m280 -141 l0 -160 40 0 c36 0 40 -2 40 -25 0 -22 -4 -25 -40 -25
l-40 0 0 -55 c0 -54 0 -55 -30 -55 -30 0 -30 1 -30 55 l0 55 -115 0 -115 0 0
25 c0 15 42 88 107 185 l106 160 39 0 38 0 0 -160z m-1759 -643 c53 -36 82
-97 87 -187 7 -129 -38 -233 -119 -276 -38 -19 -120 -18 -164 3 -38 18 -42 28
-21 56 14 18 16 18 40 1 35 -22 96 -23 129 -1 31 20 61 76 71 131 l7 38 -32
-23 c-47 -33 -141 -38 -186 -10 -47 30 -66 64 -67 124 0 63 24 111 74 144 46
32 134 32 181 0z m400 0 c53 -36 82 -97 87 -187 7 -129 -38 -233 -119 -276
-38 -19 -120 -18 -164 3 -38 18 -42 28 -21 56 14 18 16 18 40 1 35 -22 96 -23
129 -1 31 20 61 76 71 131 l7 38 -32 -23 c-47 -33 -141 -38 -186 -10 -47 30
-66 64 -67 124 0 63 24 111 74 144 46 32 134 32 181 0z m406 7 c44 -22 65 -54
67 -103 1 -42 -18 -71 -67 -101 l-28 -17 29 -12 c17 -7 43 -26 58 -42 24 -25
29 -39 29 -79 0 -83 -63 -130 -177 -130 -115 0 -186 58 -175 144 6 40 40 82
93 112 17 10 17 12 -13 28 -35 18 -63 61 -63 98 0 35 33 82 71 101 44 21 131
22 176 1z m429 0 c38 -18 39 -21 20 -47 -13 -17 -17 -17 -65 -2 -48 16 -52 16
-88 -1 -42 -21 -83 -88 -83 -136 l0 -28 37 20 c46 24 122 26 169 4 46 -22 78
-89 71 -151 -9 -86 -76 -143 -167 -143 -106 0 -168 74 -178 210 -8 120 34 223
111 270 40 25 125 27 173 4z m372 -4 c63 -39 78 -135 31 -201 -10 -15 -55 -53
-100 -84 -69 -48 -119 -102 -119 -127 0 -5 56 -8 125 -8 l125 0 0 -25 0 -25
-165 0 -165 0 6 28 c13 57 17 68 41 100 14 18 59 58 102 89 42 31 84 65 93 77
22 26 23 84 3 113 -30 43 -116 34 -159 -17 -22 -27 -27 -29 -50 -19 -25 12
-25 12 -8 41 42 72 167 102 240 58z m379 4 c44 -22 65 -54 67 -103 1 -42 -18
-71 -67 -101 l-28 -17 29 -12 c17 -7 43 -26 58 -42 24 -25 29 -39 29 -79 0
-83 -63 -130 -177 -130 -115 0 -186 58 -175 144 6 40 40 82 93 112 17 10 17
12 -13 28 -35 18 -63 61 -63 98 0 35 33 82 71 101 44 21 131 22 176 1z m434
-19 c42 -40 68 -101 76 -177 15 -166 -61 -288 -179 -288 -57 0 -96 17 -132 60
-71 85 -74 287 -4 375 40 51 76 66 145 63 53 -3 68 -9 94 -33z m4129 20 c43
-22 60 -53 60 -109 0 -43 -4 -53 -34 -81 l-35 -32 24 -11 c59 -27 79 -130 37
-189 -61 -85 -221 -85 -300 0 l-24 25 25 17 c24 15 26 15 50 -9 72 -72 207
-42 207 45 0 59 -28 82 -117 94 -46 6 -53 10 -53 30 0 20 6 23 54 30 94 11
134 68 88 125 -28 34 -109 33 -155 -3 -34 -26 -35 -26 -52 -7 -15 16 -16 22
-5 35 42 50 168 72 230 40z m798 -5 c63 -39 78 -135 31 -201 -10 -15 -55 -53
-100 -84 -69 -48 -119 -102 -119 -127 0 -5 56 -8 125 -8 l125 0 0 -25 0 -25
-165 0 -165 0 6 28 c13 57 17 68 41 100 14 18 59 58 102 89 42 31 84 65 93 77
22 26 23 84 3 113 -30 43 -116 34 -159 -17 -22 -27 -27 -29 -50 -19 -25 12
-25 12 -8 41 42 72 167 102 240 58z m-378 -150 l0 -160 40 0 c36 0 40 -2 40
-25 0 -22 -4 -25 -40 -25 l-40 0 0 -55 c0 -54 0 -55 -30 -55 -30 0 -30 1 -30
55 l0 55 -115 0 -115 0 0 25 c0 15 42 88 107 185 l106 160 39 0 38 0 0 -160z
m-6953 -636 c44 -22 65 -54 67 -103 1 -42 -18 -71 -67 -101 l-28 -17 29 -12
c17 -7 43 -26 58 -42 24 -25 29 -39 29 -79 0 -83 -63 -130 -177 -130 -115 0
-186 58 -175 144 6 40 40 82 93 112 17 10 17 12 -13 28 -35 18 -63 61 -63 98
0 35 33 82 71 101 44 21 131 22 176 1z m429 0 c38 -18 39 -21 20 -47 -13 -17
-17 -17 -65 -2 -48 16 -52 16 -88 -1 -42 -21 -83 -88 -83 -136 l0 -28 37 20
c46 24 122 26 169 4 46 -22 78 -89 71 -151 -9 -86 -76 -143 -167 -143 -106 0
-168 74 -178 210 -8 120 34 223 111 270 40 25 125 27 173 4z m1791 0 c44 -22
65 -54 67 -103 1 -42 -18 -71 -67 -101 l-28 -17 29 -12 c17 -7 43 -26 58 -42
24 -25 29 -39 29 -79 0 -83 -63 -130 -177 -130 -115 0 -186 58 -175 144 6 40
40 82 93 112 17 10 17 12 -13 28 -35 18 -63 61 -63 98 0 35 33 82 71 101 44
21 131 22 176 1z m401 -4 c63 -39 78 -135 31 -201 -10 -15 -55 -53 -100 -84
-69 -48 -119 -102 -119 -127 0 -5 56 -8 125 -8 l125 0 0 -25 0 -25 -165 0
-165 0 6 28 c13 57 17 68 41 100 14 18 59 58 102 89 42 31 84 65 93 77 22 26
23 84 3 113 -30 43 -116 34 -159 -17 -22 -27 -27 -29 -50 -19 -25 12 -25 12
-8 41 42 72 167 102 240 58z m372 5 c43 -22 60 -53 60 -109 0 -43 -4 -53 -34
-81 l-35 -32 24 -11 c59 -27 79 -130 37 -189 -61 -85 -221 -85 -300 0 l-24 25
25 17 c24 15 26 15 50 -9 72 -72 207 -42 207 45 0 59 -28 82 -117 94 -46 6
-53 10 -53 30 0 20 6 23 54 30 94 11 134 68 88 125 -28 34 -109 33 -155 -3
-34 -26 -35 -26 -52 -7 -15 16 -16 22 -5 35 42 50 168 72 230 40z m3731 -20
c42 -40 68 -101 76 -177 15 -166 -61 -288 -179 -288 -57 0 -96 17 -132 60 -71
85 -74 287 -4 375 40 51 76 66 145 63 53 -3 68 -9 94 -33z m390 12 c53 -36 82
-97 87 -187 7 -129 -38 -233 -119 -276 -38 -19 -120 -18 -164 3 -38 18 -42 28
-21 56 14 18 16 18 40 1 35 -22 96 -23 129 -1 31 20 61 76 71 131 l7 38 -32
-23 c-47 -33 -141 -38 -186 -10 -47 30 -66 64 -67 124 0 63 24 111 74 144 46
32 134 32 181 0z m389 8 c43 -22 60 -53 60 -109 0 -43 -4 -53 -34 -81 l-35
-32 24 -11 c59 -27 79 -130 37 -189 -61 -85 -221 -85 -300 0 l-24 25 25 17
c24 15 26 15 50 -9 72 -72 207 -42 207 45 0 59 -28 82 -117 94 -46 6 -53 10
-53 30 0 20 6 23 54 30 94 11 134 68 88 125 -28 34 -109 33 -155 -3 -34 -26
-35 -26 -52 -7 -15 16 -16 22 -5 35 42 50 168 72 230 40z m-6660 -20 c0 -24
-1 -24 -107 -27 l-108 -3 -3 -64 c-3 -58 -1 -63 15 -55 10 4 43 10 73 12 92 6
148 -47 157 -148 5 -57 -28 -125 -76 -157 -65 -44 -190 -25 -245 36 -20 22
-20 22 2 43 l22 22 28 -27 c84 -81 202 -39 202 72 0 57 -20 87 -65 100 -42 11
-89 0 -121 -30 -18 -17 -26 -19 -44 -9 -16 9 -20 18 -16 38 3 15 8 71 11 125
l7 97 134 0 134 0 0 -25z m5560 6 c0 -10 -46 -118 -102 -240 l-102 -221 -33 0
c-39 0 -46 -21 71 229 47 102 86 188 86 193 0 4 -54 8 -120 8 l-120 0 0 25 0
25 160 0 c150 0 160 -1 160 -19z m-6452 -781 c63 -39 78 -135 31 -201 -10 -15
-55 -53 -100 -84 -69 -48 -119 -102 -119 -127 0 -5 56 -8 125 -8 l125 0 0 -25
0 -25 -165 0 -165 0 6 28 c13 57 17 68 41 100 14 18 59 58 102 89 42 31 84 65
93 77 22 26 23 84 3 113 -30 43 -116 34 -159 -17 -22 -27 -27 -29 -50 -19 -25
12 -25 12 -8 41 42 72 167 102 240 58z m372 5 c43 -22 60 -53 60 -109 0 -43
-4 -53 -34 -81 l-35 -32 24 -11 c59 -27 79 -130 37 -189 -61 -85 -221 -85
-300 0 l-24 25 25 17 c24 15 26 15 50 -9 72 -72 207 -42 207 45 0 59 -28 82
-117 94 -46 6 -53 10 -53 30 0 20 6 23 54 30 94 11 134 68 88 125 -28 34 -109
33 -155 -3 -34 -26 -35 -26 -52 -7 -15 16 -16 22 -5 35 42 50 168 72 230 40z
m2521 -8 c53 -36 82 -97 87 -187 7 -129 -38 -233 -119 -276 -38 -19 -120 -18
-164 3 -38 18 -42 28 -21 56 14 18 16 18 40 1 35 -22 96 -23 129 -1 31 20 61
76 71 131 l7 38 -32 -23 c-47 -33 -141 -38 -186 -10 -47 30 -66 64 -67 124 0
63 24 111 74 144 46 32 134 32 181 0z m840 -12 c42 -40 68 -101 76 -177 15
-166 -61 -288 -179 -288 -57 0 -96 17 -132 60 -71 85 -74 287 -4 375 40 51 76
66 145 63 53 -3 68 -9 94 -33z m3156 19 c44 -22 65 -54 67 -103 1 -42 -18 -71
-67 -101 l-28 -17 29 -12 c17 -7 43 -26 58 -42 24 -25 29 -39 29 -79 0 -83
-63 -130 -177 -130 -115 0 -186 58 -175 144 6 40 40 82 93 112 17 10 17 12
-13 28 -35 18 -63 61 -63 98 0 35 33 82 71 101 44 21 131 22 176 1z m-6217
-209 l0 -215 40 0 c36 0 40 -2 40 -25 l0 -25 -120 0 -120 0 0 25 c0 23 4 25
45 25 l45 0 0 180 0 180 -45 -7 c-43 -5 -45 -5 -45 20 0 21 8 28 43 40 23 8
59 15 80 16 l37 1 0 -215z m420 196 c0 -10 -46 -118 -102 -240 l-102 -221 -33
0 c-39 0 -46 -21 71 229 47 102 86 188 86 193 0 4 -54 8 -120 8 l-120 0 0 25
0 25 160 0 c150 0 160 -1 160 -19z m1480 -6 c0 -24 -1 -24 -107 -27 l-108 -3
-3 -64 c-3 -58 -1 -63 15 -55 10 4 43 10 73 12 92 6 148 -47 157 -148 5 -57
-28 -125 -76 -157 -65 -44 -190 -25 -245 36 -20 22 -20 22 2 43 l22 22 28 -27
c84 -81 202 -39 202 72 0 57 -20 87 -65 100 -42 11 -89 0 -121 -30 -18 -17
-26 -19 -44 -9 -16 9 -20 18 -16 38 3 15 8 71 11 125 l7 97 134 0 134 0 0 -25z
m750 -135 l0 -160 40 0 c36 0 40 -2 40 -25 0 -22 -4 -25 -40 -25 l-40 0 0 -55
c0 -54 0 -55 -30 -55 -30 0 -30 1 -30 55 l0 55 -115 0 -115 0 0 25 c0 15 42
88 107 185 l106 160 39 0 38 0 0 -160z m3190 0 l0 -160 40 0 c36 0 40 -2 40
-25 0 -22 -4 -25 -40 -25 l-40 0 0 -55 c0 -54 0 -55 -30 -55 -30 0 -30 1 -30
55 l0 55 -115 0 -115 0 0 25 c0 15 42 88 107 185 l106 160 39 0 38 0 0 -160z
m680 -55 l0 -215 40 0 c36 0 40 -2 40 -25 l0 -25 -120 0 -120 0 0 25 c0 23 4
25 45 25 l45 0 0 180 0 180 -45 -7 c-43 -5 -45 -5 -45 20 0 21 8 28 43 40 23
8 59 15 80 16 l37 1 0 -215z m280 0 l0 -215 40 0 c36 0 40 -2 40 -25 l0 -25
-120 0 -120 0 0 25 c0 23 4 25 45 25 l45 0 0 180 0 180 -45 -7 c-43 -5 -45 -5
-45 20 0 21 8 28 43 40 23 8 59 15 80 16 l37 1 0 -215z m-7209 -588 c53 -36
82 -97 87 -187 7 -129 -38 -233 -119 -276 -38 -19 -120 -18 -164 3 -38 18 -42
28 -21 56 14 18 16 18 40 1 35 -22 96 -23 129 -1 31 20 61 76 71 131 l7 38
-32 -23 c-47 -33 -141 -38 -186 -10 -47 30 -66 64 -67 124 0 63 24 111 74 144
46 32 134 32 181 0z m389 8 c43 -22 60 -53 60 -109 0 -43 -4 -53 -34 -81 l-35
-32 24 -11 c59 -27 79 -130 37 -189 -61 -85 -221 -85 -300 0 l-24 25 25 17
c24 15 26 15 50 -9 72 -72 207 -42 207 45 0 59 -28 82 -117 94 -46 6 -53 10
-53 30 0 20 6 23 54 30 94 11 134 68 88 125 -28 34 -109 33 -155 -3 -34 -26
-35 -26 -52 -7 -15 16 -16 22 -5 35 42 50 168 72 230 40z m3661 -8 c53 -36 82
-97 87 -187 7 -129 -38 -233 -119 -276 -38 -19 -120 -18 -164 3 -38 18 -42 28
-21 56 14 18 16 18 40 1 35 -22 96 -23 129 -1 31 20 61 76 71 131 l7 38 -32
-23 c-47 -33 -141 -38 -186 -10 -47 30 -66 64 -67 124 0 63 24 111 74 144 46
32 134 32 181 0z m2307 3 c63 -39 78 -135 31 -201 -10 -15 -55 -53 -100 -84
-69 -48 -119 -102 -119 -127 0 -5 56 -8 125 -8 l125 0 0 -25 0 -25 -165 0
-165 0 6 28 c13 57 17 68 41 100 14 18 59 58 102 89 42 31 84 65 93 77 22 26
23 84 3 113 -30 43 -116 34 -159 -17 -22 -27 -27 -29 -50 -19 -25 12 -25 12
-8 41 42 72 167 102 240 58z m380 0 c63 -39 78 -135 31 -201 -10 -15 -55 -53
-100 -84 -69 -48 -119 -102 -119 -127 0 -5 56 -8 125 -8 l125 0 0 -25 0 -25
-165 0 -165 0 6 28 c13 57 17 68 41 100 14 18 59 58 102 89 42 31 84 65 93 77
22 26 23 84 3 113 -30 43 -116 34 -159 -17 -22 -27 -27 -29 -50 -19 -25 12
-25 12 -8 41 42 72 167 102 240 58z m373 -3 c53 -36 82 -97 87 -187 7 -129
-38 -233 -119 -276 -38 -19 -120 -18 -164 3 -38 18 -42 28 -21 56 14 18 16 18
40 1 35 -22 96 -23 129 -1 31 20 61 76 71 131 l7 38 -32 -23 c-47 -33 -141
-38 -186 -10 -47 30 -66 64 -67 124 0 63 24 111 74 144 46 32 134 32 181 0z
m-7481 -202 l0 -215 40 0 c36 0 40 -2 40 -25 l0 -25 -120 0 -120 0 0 25 c0 23
4 25 45 25 l45 0 0 180 0 180 -45 -7 c-43 -5 -45 -5 -45 20 0 21 8 28 43 40
23 8 59 15 80 16 l37 1 0 -215z m3340 190 c0 -24 -1 -24 -107 -27 l-108 -3 -3
-64 c-3 -58 -1 -63 15 -55 10 4 43 10 73 12 92 6 148 -47 157 -148 5 -57 -28
-125 -76 -157 -65 -44 -190 -25 -245 36 -20 22 -20 22 2 43 l22 22 28 -27 c84
-81 202 -39 202 72 0 57 -20 87 -65 100 -42 11 -89 0 -121 -30 -18 -17 -26
-19 -44 -9 -16 9 -20 18 -16 38 3 15 8 71 11 125 l7 97 134 0 134 0 0 -25z
m380 0 c0 -24 -1 -24 -107 -27 l-108 -3 -3 -64 c-3 -58 -1 -63 15 -55 10 4 43
10 73 12 92 6 148 -47 157 -148 5 -57 -28 -125 -76 -157 -65 -44 -190 -25
-245 36 -20 22 -20 22 2 43 l22 22 28 -27 c84 -81 202 -39 202 72 0 57 -20 87
-65 100 -42 11 -89 0 -121 -30 -18 -17 -26 -19 -44 -9 -16 9 -20 18 -16 38 3
15 8 71 11 125 l7 97 134 0 134 0 0 -25z m380 0 c0 -24 -1 -24 -107 -27 l-108
-3 -3 -64 c-3 -58 -1 -63 15 -55 10 4 43 10 73 12 92 6 148 -47 157 -148 5
-57 -28 -125 -76 -157 -65 -44 -190 -25 -245 36 -20 22 -20 22 2 43 l22 22 28
-27 c84 -81 202 -39 202 72 0 57 -20 87 -65 100 -42 11 -89 0 -121 -30 -18
-17 -26 -19 -44 -9 -16 9 -20 18 -16 38 3 15 8 71 11 125 l7 97 134 0 134 0 0
-25z m-3172 -775 c63 -39 78 -135 31 -201 -10 -15 -55 -53 -100 -84 -69 -48
-119 -102 -119 -127 0 -5 56 -8 125 -8 l125 0 0 -25 0 -25 -165 0 -165 0 6 28
c13 57 17 68 41 100 14 18 59 58 102 89 42 31 84 65 93 77 22 26 23 84 3 113
-30 43 -116 34 -159 -17 -22 -27 -27 -29 -50 -19 -25 12 -25 12 -8 41 42 72
167 102 240 58z m3468 4 c38 -18 39 -21 20 -47 -13 -17 -17 -17 -65 -2 -48 16
-52 16 -88 -1 -42 -21 -83 -88 -83 -136 l0 -28 37 20 c46 24 122 26 169 4 46
-22 78 -89 71 -151 -9 -86 -76 -143 -167 -143 -106 0 -168 74 -178 210 -8 120
34 223 111 270 40 25 125 27 173 4z m400 0 c38 -18 39 -21 20 -47 -13 -17 -17
-17 -65 -2 -48 16 -52 16 -88 -1 -42 -21 -83 -88 -83 -136 l0 -28 37 20 c46
24 122 26 169 4 46 -22 78 -89 71 -151 -9 -86 -76 -143 -167 -143 -106 0 -168
74 -178 210 -8 120 34 223 111 270 40 25 125 27 173 4z m2740 0 c38 -18 39
-21 20 -47 -13 -17 -17 -17 -65 -2 -48 16 -52 16 -88 -1 -42 -21 -83 -88 -83
-136 l0 -28 37 20 c46 24 122 26 169 4 46 -22 78 -89 71 -151 -9 -86 -76 -143
-167 -143 -106 0 -168 74 -178 210 -8 120 34 223 111 270 40 25 125 27 173 4z
m-7386 -154 l0 -160 40 0 c36 0 40 -2 40 -25 0 -22 -4 -25 -40 -25 l-40 0 0
-55 c0 -54 0 -55 -30 -55 -30 0 -30 1 -30 55 l0 55 -115 0 -115 0 0 25 c0 15
42 88 107 185 l106 160 39 0 38 0 0 -160z m400 0 l0 -160 40 0 c36 0 40 -2 40
-25 0 -22 -4 -25 -40 -25 l-40 0 0 -55 c0 -54 0 -55 -30 -55 -30 0 -30 1 -30
55 l0 55 -115 0 -115 0 0 25 c0 15 42 88 107 185 l106 160 39 0 38 0 0 -160z
m3480 135 c0 -24 -1 -24 -107 -27 l-108 -3 -3 -64 c-3 -58 -1 -63 15 -55 10 4
43 10 73 12 92 6 148 -47 157 -148 5 -57 -28 -125 -76 -157 -65 -44 -190 -25
-245 36 -20 22 -20 22 2 43 l22 22 28 -27 c84 -81 202 -39 202 72 0 57 -20 87
-65 100 -42 11 -89 0 -121 -30 -18 -17 -26 -19 -44 -9 -16 9 -20 18 -16 38 3
15 8 71 11 125 l7 97 134 0 134 0 0 -25z m2700 -135 l0 -160 40 0 c36 0 40 -2
40 -25 0 -22 -4 -25 -40 -25 l-40 0 0 -55 c0 -54 0 -55 -30 -55 -30 0 -30 1
-30 55 l0 55 -115 0 -115 0 0 25 c0 15 42 88 107 185 l106 160 39 0 38 0 0
-160z m400 0 l0 -160 40 0 c36 0 40 -2 40 -25 0 -22 -4 -25 -40 -25 l-40 0 0
-55 c0 -54 0 -55 -30 -55 -30 0 -30 1 -30 55 l0 55 -115 0 -115 0 0 25 c0 15
42 88 107 185 l106 160 39 0 38 0 0 -160z m-7073 -636 c44 -22 65 -54 67 -103
1 -42 -18 -71 -67 -101 l-28 -17 29 -12 c17 -7 43 -26 58 -42 24 -25 29 -39
29 -79 0 -83 -63 -130 -177 -130 -115 0 -186 58 -175 144 6 40 40 82 93 112
17 10 17 12 -13 28 -35 18 -63 61 -63 98 0 35 33 82 71 101 44 21 131 22 176
1z m429 0 c38 -18 39 -21 20 -47 -13 -17 -17 -17 -65 -2 -48 16 -52 16 -88 -1
-42 -21 -83 -88 -83 -136 l0 -28 37 20 c46 24 122 26 169 4 46 -22 78 -89 71
-151 -9 -86 -76 -143 -167 -143 -106 0 -168 74 -178 210 -8 120 34 223 111
270 40 25 125 27 173 4z m4452 -4 c63 -39 78 -135 31 -201 -10 -15 -55 -53
-100 -84 -69 -48 -119 -102 -119 -127 0 -5 56 -8 125 -8 l125 0 0 -25 0 -25
-165 0 -165 0 6 28 c13 57 17 68 41 100 14 18 59 58 102 89 42 31 84 65 93 77
22 26 23 84 3 113 -30 43 -116 34 -159 -17 -22 -27 -27 -29 -50 -19 -25 12
-25 12 -8 41 42 72 167 102 240 58z m403 -15 c42 -40 68 -101 76 -177 15 -166
-61 -288 -179 -288 -57 0 -96 17 -132 60 -71 85 -74 287 -4 375 40 51 76 66
145 63 53 -3 68 -9 94 -33z m1500 12 c53 -36 82 -97 87 -187 7 -129 -38 -233
-119 -276 -38 -19 -120 -18 -164 3 -38 18 -42 28 -21 56 14 18 16 18 40 1 35
-22 96 -23 129 -1 31 20 61 76 71 131 l7 38 -32 -23 c-47 -33 -141 -38 -186
-10 -47 30 -66 64 -67 124 0 63 24 111 74 144 46 32 134 32 181 0z m-5951 -6
c0 -10 -46 -118 -102 -240 l-102 -221 -33 0 c-39 0 -46 -21 71 229 47 102 86
188 86 193 0 4 -54 8 -120 8 l-120 0 0 25 0 25 160 0 c150 0 160 -1 160 -19z
m3670 -196 l0 -215 40 0 c36 0 40 -2 40 -25 l0 -25 -120 0 -120 0 0 25 c0 23
4 25 45 25 l45 0 0 180 0 180 -45 -7 c-43 -5 -45 -5 -45 20 0 21 8 28 43 40
23 8 59 15 80 16 l37 1 0 -215z m1080 0 l0 -215 40 0 c36 0 40 -2 40 -25 l0
-25 -120 0 -120 0 0 25 c0 23 4 25 45 25 l45 0 0 180 0 180 -45 -7 c-43 -5
-45 -5 -45 20 0 21 8 28 43 40 23 8 59 15 80 16 l37 1 0 -215z m1510 0 l0
-215 40 0 c36 0 40 -2 40 -25 l0 -25 -120 0 -120 0 0 25 c0 23 4 25 45 25 l45
0 0 180 0 180 -45 -7 c-43 -5 -45 -5 -45 20 0 21 8 28 43 40 23 8 59 15 80 16
l37 1 0 -215z m380 55 l0 -160 40 0 c36 0 40 -2 40 -25 0 -22 -4 -25 -40 -25
l-40 0 0 -55 c0 -54 0 -55 -30 -55 -30 0 -30 1 -30 55 l0 55 -115 0 -115 0 0
25 c0 15 42 88 107 185 l106 160 39 0 38 0 0 -160z m-7390 -635 c43 -22 60
-53 60 -109 0 -43 -4 -53 -34 -81 l-35 -32 24 -11 c59 -27 79 -130 37 -189
-61 -85 -221 -85 -300 0 l-24 25 25 17 c24 15 26 15 50 -9 72 -72 207 -42 207
45 0 59 -28 82 -117 94 -46 6 -53 10 -53 30 0 20 6 23 54 30 94 11 134 68 88
125 -28 34 -109 33 -155 -3 -34 -26 -35 -26 -52 -7 -15 16 -16 22 -5 35 42 50
168 72 230 40z m797 -1 c44 -22 65 -54 67 -103 1 -42 -18 -71 -67 -101 l-28
-17 29 -12 c17 -7 43 -26 58 -42 24 -25 29 -39 29 -79 0 -83 -63 -130 -177
-130 -115 0 -186 58 -175 144 6 40 40 82 93 112 17 10 17 12 -13 28 -35 18
-63 61 -63 98 0 35 33 82 71 101 44 21 131 22 176 1z m4033 1 c43 -22 60 -53
60 -109 0 -43 -4 -53 -34 -81 l-35 -32 24 -11 c59 -27 79 -130 37 -189 -61
-85 -221 -85 -300 0 l-24 25 25 17 c24 15 26 15 50 -9 72 -72 207 -42 207 45
0 59 -28 82 -117 94 -46 6 -53 10 -53 30 0 20 6 23 54 30 94 11 134 68 88 125
-28 34 -109 33 -155 -3 -34 -26 -35 -26 -52 -7 -15 16 -16 22 -5 35 42 50 168
72 230 40z m398 -5 c63 -39 78 -135 31 -201 -10 -15 -55 -53 -100 -84 -69 -48
-119 -102 -119 -127 0 -5 56 -8 125 -8 l125 0 0 -25 0 -25 -165 0 -165 0 6 28
c13 57 17 68 41 100 14 18 59 58 102 89 42 31 84 65 93 77 22 26 23 84 3 113
-30 43 -116 34 -159 -17 -22 -27 -27 -29 -50 -19 -25 12 -25 12 -8 41 42 72
167 102 240 58z m408 4 c38 -18 39 -21 20 -47 -13 -17 -17 -17 -65 -2 -48 16
-52 16 -88 -1 -42 -21 -83 -88 -83 -136 l0 -28 37 20 c46 24 122 26 169 4 46
-22 78 -89 71 -151 -9 -86 -76 -143 -167 -143 -106 0 -168 74 -178 210 -8 120
34 223 111 270 40 25 125 27 173 4z m400 0 c38 -18 39 -21 20 -47 -13 -17 -17
-17 -65 -2 -48 16 -52 16 -88 -1 -42 -21 -83 -88 -83 -136 l0 -28 37 20 c46
24 122 26 169 4 46 -22 78 -89 71 -151 -9 -86 -76 -143 -167 -143 -106 0 -168
74 -178 210 -8 120 34 223 111 270 40 25 125 27 173 4z m771 0 c44 -22 65 -54
67 -103 1 -42 -18 -71 -67 -101 l-28 -17 29 -12 c17 -7 43 -26 58 -42 24 -25
29 -39 29 -79 0 -83 -63 -130 -177 -130 -115 0 -186 58 -175 144 6 40 40 82
93 112 17 10 17 12 -13 28 -35 18 -63 61 -63 98 0 35 33 82 71 101 44 21 131
22 176 1z m401 -4 c63 -39 78 -135 31 -201 -10 -15 -55 -53 -100 -84 -69 -48
-119 -102 -119 -127 0 -5 56 -8 125 -8 l125 0 0 -25 0 -25 -165 0 -165 0 6 28
c13 57 17 68 41 100 14 18 59 58 102 89 42 31 84 65 93 77 22 26 23 84 3 113
-30 43 -116 34 -159 -17 -22 -27 -27 -29 -50 -19 -25 12 -25 12 -8 41 42 72
167 102 240 58z m-6788 -150 l0 -160 40 0 c36 0 40 -2 40 -25 0 -22 -4 -25
-40 -25 l-40 0 0 -55 c0 -54 0 -55 -30 -55 -30 0 -30 1 -30 55 l0 55 -115 0
-115 0 0 25 c0 15 42 88 107 185 l106 160 39 0 38 0 0 -160z m6010 0 l0 -160
40 0 c36 0 40 -2 40 -25 0 -22 -4 -25 -40 -25 l-40 0 0 -55 c0 -54 0 -55 -30
-55 -30 0 -30 1 -30 55 l0 55 -115 0 -115 0 0 25 c0 15 42 88 107 185 l106
160 39 0 38 0 0 -160z m1060 -55 l0 -215 40 0 c36 0 40 -2 40 -25 l0 -25 -120
0 -120 0 0 25 c0 23 4 25 45 25 l45 0 0 180 0 180 -45 -7 c-43 -5 -45 -5 -45
20 0 21 8 28 43 40 23 8 59 15 80 16 l37 1 0 -215z m-6562 -585 c63 -39 78
-135 31 -201 -10 -15 -55 -53 -100 -84 -69 -48 -119 -102 -119 -127 0 -5 56
-8 125 -8 l125 0 0 -25 0 -25 -165 0 -165 0 6 28 c13 57 17 68 41 100 14 18
59 58 102 89 42 31 84 65 93 77 22 26 23 84 3 113 -30 43 -116 34 -159 -17
-22 -27 -27 -29 -50 -19 -25 12 -25 12 -8 41 42 72 167 102 240 58z m5163 -15
c42 -40 68 -101 76 -177 15 -166 -61 -288 -179 -288 -57 0 -96 17 -132 60 -71
85 -74 287 -4 375 40 51 76 66 145 63 53 -3 68 -9 94 -33z m430 0 c42 -40 68
-101 76 -177 15 -166 -61 -288 -179 -288 -57 0 -96 17 -132 60 -71 85 -74 287
-4 375 40 51 76 66 145 63 53 -3 68 -9 94 -33z m425 19 c38 -18 39 -21 20 -47
-13 -17 -17 -17 -65 -2 -48 16 -52 16 -88 -1 -42 -21 -83 -88 -83 -136 l0 -28
37 20 c46 24 122 26 169 4 46 -22 78 -89 71 -151 -9 -86 -76 -143 -167 -143
-106 0 -168 74 -178 210 -8 120 34 223 111 270 40 25 125 27 173 4z m400 0
c38 -18 39 -21 20 -47 -13 -17 -17 -17 -65 -2 -48 16 -52 16 -88 -1 -42 -21
-83 -88 -83 -136 l0 -28 37 20 c46 24 122 26 169 4 46 -22 78 -89 71 -151 -9
-86 -76 -143 -167 -143 -106 0 -168 74 -178 210 -8 120 34 223 111 270 40 25
125 27 173 4z m-7456 -209 l0 -215 40 0 c36 0 40 -2 40 -25 l0 -25 -120 0
-120 0 0 25 c0 23 4 25 45 25 l45 0 0 180 0 180 -45 -7 c-43 -5 -45 -5 -45 20
0 21 8 28 43 40 23 8 59 15 80 16 l37 1 0 -215z m380 55 l0 -160 40 0 c36 0
40 -2 40 -25 0 -22 -4 -25 -40 -25 l-40 0 0 -55 c0 -54 0 -55 -30 -55 -30 0
-30 1 -30 55 l0 55 -115 0 -115 0 0 25 c0 15 42 88 107 185 l106 160 39 0 38
0 0 -160z m280 -55 l0 -215 40 0 c36 0 40 -2 40 -25 l0 -25 -120 0 -120 0 0
25 c0 23 4 25 45 25 l45 0 0 180 0 180 -45 -7 c-43 -5 -45 -5 -45 20 0 21 8
28 43 40 23 8 59 15 80 16 l37 1 0 -215z m5220 196 c0 -10 -46 -118 -102 -240
l-102 -221 -33 0 c-39 0 -46 -21 71 229 47 102 86 188 86 193 0 4 -54 8 -120
8 l-120 0 0 25 0 25 160 0 c150 0 160 -1 160 -19z m-5952 -781 c63 -39 78
-135 31 -201 -10 -15 -55 -53 -100 -84 -69 -48 -119 -102 -119 -127 0 -5 56
-8 125 -8 l125 0 0 -25 0 -25 -165 0 -165 0 6 28 c13 57 17 68 41 100 14 18
59 58 102 89 42 31 84 65 93 77 22 26 23 84 3 113 -30 43 -116 34 -159 -17
-22 -27 -27 -29 -50 -19 -25 12 -25 12 -8 41 42 72 167 102 240 58z m373 -3
c53 -36 82 -97 87 -187 7 -129 -38 -233 -119 -276 -38 -19 -120 -18 -164 3
-38 18 -42 28 -21 56 14 18 16 18 40 1 35 -22 96 -23 129 -1 31 20 61 76 71
131 l7 38 -32 -23 c-47 -33 -141 -38 -186 -10 -47 30 -66 64 -67 124 0 63 24
111 74 144 46 32 134 32 181 0z m397 3 c63 -39 78 -135 31 -201 -10 -15 -55
-53 -100 -84 -69 -48 -119 -102 -119 -127 0 -5 56 -8 125 -8 l125 0 0 -25 0
-25 -165 0 -165 0 6 28 c13 57 17 68 41 100 14 18 59 58 102 89 42 31 84 65
93 77 22 26 23 84 3 113 -30 43 -116 34 -159 -17 -22 -27 -27 -29 -50 -19 -25
12 -25 12 -8 41 42 72 167 102 240 58z m5522 5 c43 -22 60 -53 60 -109 0 -43
-4 -53 -34 -81 l-35 -32 24 -11 c59 -27 79 -130 37 -189 -61 -85 -221 -85
-300 0 l-24 25 25 17 c24 15 26 15 50 -9 72 -72 207 -42 207 45 0 59 -28 82
-117 94 -46 6 -53 10 -53 30 0 20 6 23 54 30 94 11 134 68 88 125 -28 34 -109
33 -155 -3 -34 -26 -35 -26 -52 -7 -15 16 -16 22 -5 35 42 50 168 72 230 40z
m426 -1 c38 -18 39 -21 20 -47 -13 -17 -17 -17 -65 -2 -48 16 -52 16 -88 -1
-42 -21 -83 -88 -83 -136 l0 -28 37 20 c46 24 122 26 169 4 46 -22 78 -89 71
-151 -9 -86 -76 -143 -167 -143 -106 0 -168 74 -178 210 -8 120 34 223 111
270 40 25 125 27 173 4z m764 1 c43 -22 60 -53 60 -109 0 -43 -4 -53 -34 -81
l-35 -32 24 -11 c59 -27 79 -130 37 -189 -61 -85 -221 -85 -300 0 l-24 25 25
17 c24 15 26 15 50 -9 72 -72 207 -42 207 45 0 59 -28 82 -117 94 -46 6 -53
10 -53 30 0 20 6 23 54 30 94 11 134 68 88 125 -28 34 -109 33 -155 -3 -34
-26 -35 -26 -52 -7 -15 16 -16 22 -5 35 42 50 168 72 230 40z m-6290 -20 c0
-24 -1 -24 -107 -27 l-108 -3 -3 -64 c-3 -58 -1 -63 15 -55 10 4 43 10 73 12
92 6 148 -47 157 -148 5 -57 -28 -125 -76 -157 -65 -44 -190 -25 -245 36 -20
22 -20 22 2 43 l22 22 28 -27 c84 -81 202 -39 202 72 0 57 -20 87 -65 100 -42
11 -89 0 -121 -30 -18 -17 -26 -19 -44 -9 -16 9 -20 18 -16 38 3 15 8 71 11
125 l7 97 134 0 134 0 0 -25z m5920 -135 l0 -160 40 0 c36 0 40 -2 40 -25 0
-22 -4 -25 -40 -25 l-40 0 0 -55 c0 -54 0 -55 -30 -55 -30 0 -30 1 -30 55 l0
55 -115 0 -115 0 0 25 c0 15 42 88 107 185 l106 160 39 0 38 0 0 -160z"/>
<path d="M2697 14160 c-41 -12 -57 -29 -57 -61 0 -31 17 -52 61 -74 26 -14 32
-14 58 0 44 22 61 43 61 75 0 46 -64 77 -123 60z"/>
<path d="M2690 13940 c-52 -27 -72 -53 -68 -91 4 -46 42 -71 108 -71 68 0 104
25 108 75 3 30 -2 39 -30 60 -54 42 -79 47 -118 27z"/>
<path d="M9047 14160 c-41 -12 -57 -29 -57 -61 0 -31 17 -52 61 -74 26 -14 32
-14 58 0 44 22 61 43 61 75 0 46 -64 77 -123 60z"/>
<path d="M9040 13940 c-52 -27 -72 -53 -68 -91 4 -46 42 -71 108 -71 68 0 104
25 108 75 3 30 -2 39 -30 60 -54 42 -79 47 -118 27z"/>
<path d="M10113 14159 c-18 -5 -39 -19 -48 -31 -22 -32 -19 -100 5 -130 34
-44 122 -42 175 5 23 20 24 25 14 64 -19 72 -79 110 -146 92z"/>
<path d="M9448 14012 l-78 -117 76 -3 c42 -2 78 -1 81 1 2 2 2 56 1 120 l-3
115 -77 -116z"/>
<path d="M2327 13370 c-41 -12 -57 -29 -57 -61 0 -31 17 -52 61 -74 26 -14 32
-14 58 0 44 22 61 43 61 75 0 46 -64 77 -123 60z"/>
<path d="M2320 13150 c-52 -27 -72 -53 -68 -91 4 -46 42 -71 108 -71 68 0 104
25 108 75 3 30 -2 39 -30 60 -54 42 -79 47 -118 27z"/>
<path d="M3102 13365 c-49 -21 -72 -79 -72 -185 0 -109 25 -167 81 -188 31
-12 41 -11 73 2 53 22 76 77 76 186 0 108 -23 164 -74 185 -42 18 -42 18 -84
0z"/>
<path d="M3513 13369 c-18 -5 -39 -19 -48 -31 -22 -32 -19 -100 5 -130 34 -44
122 -42 175 5 23 20 24 25 14 64 -19 72 -79 110 -146 92z"/>
<path d="M9752 13365 c-49 -21 -72 -79 -72 -185 0 -109 25 -167 81 -188 31
-12 41 -11 73 2 53 22 76 77 76 186 0 108 -23 164 -74 185 -42 18 -42 18 -84
0z"/>
<path d="M4218 13222 l-78 -117 76 -3 c42 -2 78 -1 81 1 2 2 2 56 1 120 l-3
115 -77 -116z"/>
<path d="M2473 12579 c-18 -5 -39 -19 -48 -31 -22 -32 -19 -100 5 -130 34 -44
122 -42 175 5 23 20 24 25 14 64 -19 72 -79 110 -146 92z"/>
<path d="M2873 12579 c-18 -5 -39 -19 -48 -31 -22 -32 -19 -100 5 -130 34 -44
122 -42 175 5 23 20 24 25 14 64 -19 72 -79 110 -146 92z"/>
<path d="M3287 12580 c-41 -12 -57 -29 -57 -61 0 -31 17 -52 61 -74 26 -14 32
-14 58 0 44 22 61 43 61 75 0 46 -64 77 -123 60z"/>
<path d="M3280 12360 c-52 -27 -72 -53 -68 -91 4 -46 42 -71 108 -71 68 0 104
25 108 75 3 30 -2 39 -30 60 -54 42 -79 47 -118 27z"/>
<path d="M3699 12391 c-52 -17 -79 -42 -79 -75 0 -75 74 -134 143 -115 19 5
40 16 46 23 34 41 30 129 -7 152 -27 17 -74 24 -103 15z"/>
<path d="M4467 12580 c-41 -12 -57 -29 -57 -61 0 -31 17 -52 61 -74 26 -14 32
-14 58 0 44 22 61 43 61 75 0 46 -64 77 -123 60z"/>
<path d="M4460 12360 c-52 -27 -72 -53 -68 -91 4 -46 42 -71 108 -71 68 0 104
25 108 75 3 30 -2 39 -30 60 -54 42 -79 47 -118 27z"/>
<path d="M4872 12575 c-49 -21 -72 -79 -72 -185 0 -109 25 -167 81 -188 31
-12 41 -11 73 2 53 22 76 77 76 186 0 108 -23 164 -74 185 -42 18 -42 18 -84
0z"/>
<path d="M9428 12432 l-78 -117 76 -3 c42 -2 78 -1 81 1 2 2 2 56 1 120 l-3
115 -77 -116z"/>
<path d="M2497 11790 c-41 -12 -57 -29 -57 -61 0 -31 17 -52 61 -74 26 -14 32
-14 58 0 44 22 61 43 61 75 0 46 -64 77 -123 60z"/>
<path d="M2490 11570 c-52 -27 -72 -53 -68 -91 4 -46 42 -71 108 -71 68 0 104
25 108 75 3 30 -2 39 -30 60 -54 42 -79 47 -118 27z"/>
<path d="M2909 11601 c-52 -17 -79 -42 -79 -75 0 -75 74 -134 143 -115 19 5
40 16 46 23 34 41 30 129 -7 152 -27 17 -74 24 -103 15z"/>
<path d="M4717 11790 c-41 -12 -57 -29 -57 -61 0 -31 17 -52 61 -74 26 -14 32
-14 58 0 44 22 61 43 61 75 0 46 -64 77 -123 60z"/>
<path d="M4710 11570 c-52 -27 -72 -53 -68 -91 4 -46 42 -71 108 -71 68 0 104
25 108 75 3 30 -2 39 -30 60 -54 42 -79 47 -118 27z"/>
<path d="M9192 11785 c-49 -21 -72 -79 -72 -185 0 -109 25 -167 81 -188 31
-12 41 -11 73 2 53 22 76 77 76 186 0 108 -23 164 -74 185 -42 18 -42 18 -84
0z"/>
<path d="M9603 11789 c-18 -5 -39 -19 -48 -31 -22 -32 -19 -100 5 -130 34 -44
122 -42 175 5 23 20 24 25 14 64 -19 72 -79 110 -146 92z"/>
<path d="M5333 10999 c-18 -5 -39 -19 -48 -31 -22 -32 -19 -100 5 -130 34 -44
122 -42 175 5 23 20 24 25 14 64 -19 72 -79 110 -146 92z"/>
<path d="M6152 10995 c-49 -21 -72 -79 -72 -185 0 -109 25 -167 81 -188 31
-12 41 -11 73 2 53 22 76 77 76 186 0 108 -23 164 -74 185 -42 18 -42 18 -84
0z"/>
<path d="M9337 11000 c-41 -12 -57 -29 -57 -61 0 -31 17 -52 61 -74 26 -14 32
-14 58 0 44 22 61 43 61 75 0 46 -64 77 -123 60z"/>
<path d="M9330 10780 c-52 -27 -72 -53 -68 -91 4 -46 42 -71 108 -71 68 0 104
25 108 75 3 30 -2 39 -30 60 -54 42 -79 47 -118 27z"/>
<path d="M5748 10852 l-78 -117 76 -3 c42 -2 78 -1 81 1 2 2 2 56 1 120 l-3
115 -77 -116z"/>
<path d="M8938 10852 l-78 -117 76 -3 c42 -2 78 -1 81 1 2 2 2 56 1 120 l-3
115 -77 -116z"/>
<path d="M2703 10209 c-18 -5 -39 -19 -48 -31 -22 -32 -19 -100 5 -130 34 -44
122 -42 175 5 23 20 24 25 14 64 -19 72 -79 110 -146 92z"/>
<path d="M6753 10209 c-18 -5 -39 -19 -48 -31 -22 -32 -19 -100 5 -130 34 -44
122 -42 175 5 23 20 24 25 14 64 -19 72 -79 110 -146 92z"/>
<path d="M9813 10209 c-18 -5 -39 -19 -48 -31 -22 -32 -19 -100 5 -130 34 -44
122 -42 175 5 23 20 24 25 14 64 -19 72 -79 110 -146 92z"/>
<path d="M6719 9231 c-52 -17 -79 -42 -79 -75 0 -75 74 -134 143 -115 19 5 40
16 46 23 34 41 30 129 -7 152 -27 17 -74 24 -103 15z"/>
<path d="M7119 9231 c-52 -17 -79 -42 -79 -75 0 -75 74 -134 143 -115 19 5 40
16 46 23 34 41 30 129 -7 152 -27 17 -74 24 -103 15z"/>
<path d="M9859 9231 c-52 -17 -79 -42 -79 -75 0 -75 74 -134 143 -115 19 5 40
16 46 23 34 41 30 129 -7 152 -27 17 -74 24 -103 15z"/>
<path d="M2468 9272 l-78 -117 76 -3 c42 -2 78 -1 81 1 2 2 2 56 1 120 l-3
115 -77 -116z"/>
<path d="M2868 9272 l-78 -117 76 -3 c42 -2 78 -1 81 1 2 2 2 56 1 120 l-3
115 -77 -116z"/>
<path d="M9048 9272 l-78 -117 76 -3 c42 -2 78 -1 81 1 2 2 2 56 1 120 l-3
115 -77 -116z"/>
<path d="M9448 9272 l-78 -117 76 -3 c42 -2 78 -1 81 1 2 2 2 56 1 120 l-3
115 -77 -116z"/>
<path d="M2397 8630 c-41 -12 -57 -29 -57 -61 0 -31 17 -52 61 -74 26 -14 32
-14 58 0 44 22 61 43 61 75 0 46 -64 77 -123 60z"/>
<path d="M2390 8410 c-52 -27 -72 -53 -68 -91 4 -46 42 -71 108 -71 68 0 104
25 108 75 3 30 -2 39 -30 60 -54 42 -79 47 -118 27z"/>
<path d="M2809 8441 c-52 -17 -79 -42 -79 -75 0 -75 74 -134 143 -115 19 5 40
16 46 23 34 41 30 129 -7 152 -27 17 -74 24 -103 15z"/>
<path d="M7652 8625 c-49 -21 -72 -79 -72 -185 0 -109 25 -167 81 -188 31 -12
41 -11 73 2 53 22 76 77 76 186 0 108 -23 164 -74 185 -42 18 -42 18 -84 0z"/>
<path d="M9173 8629 c-18 -5 -39 -19 -48 -31 -22 -32 -19 -100 5 -130 34 -44
122 -42 175 5 23 20 24 25 14 64 -19 72 -79 110 -146 92z"/>
<path d="M9848 8482 l-78 -117 76 -3 c42 -2 78 -1 81 1 2 2 2 56 1 120 l-3
115 -77 -116z"/>
<path d="M3277 7840 c-41 -12 -57 -29 -57 -61 0 -31 17 -52 61 -74 26 -14 32
-14 58 0 44 22 61 43 61 75 0 46 -64 77 -123 60z"/>
<path d="M3270 7620 c-52 -27 -72 -53 -68 -91 4 -46 42 -71 108 -71 68 0 104
25 108 75 3 30 -2 39 -30 60 -54 42 -79 47 -118 27z"/>
<path d="M8099 7651 c-52 -17 -79 -42 -79 -75 0 -75 74 -134 143 -115 19 5 40
16 46 23 34 41 30 129 -7 152 -27 17 -74 24 -103 15z"/>
<path d="M8499 7651 c-52 -17 -79 -42 -79 -75 0 -75 74 -134 143 -115 19 5 40
16 46 23 34 41 30 129 -7 152 -27 17 -74 24 -103 15z"/>
<path d="M9287 7840 c-41 -12 -57 -29 -57 -61 0 -31 17 -52 61 -74 26 -14 32
-14 58 0 44 22 61 43 61 75 0 46 -64 77 -123 60z"/>
<path d="M9280 7620 c-52 -27 -72 -53 -68 -91 4 -46 42 -71 108 -71 68 0 104
25 108 75 3 30 -2 39 -30 60 -54 42 -79 47 -118 27z"/>
<path d="M2878 7692 l-78 -117 76 -3 c42 -2 78 -1 81 1 2 2 2 56 1 120 l-3
115 -77 -116z"/>
<path d="M8888 7692 l-78 -117 76 -3 c42 -2 78 -1 81 1 2 2 2 56 1 120 l-3
115 -77 -116z"/>
<path d="M8542 7045 c-49 -21 -72 -79 -72 -185 0 -109 25 -167 81 -188 31 -12
41 -11 73 2 53 22 76 77 76 186 0 108 -23 164 -74 185 -42 18 -42 18 -84 0z"/>
<path d="M8972 7045 c-49 -21 -72 -79 -72 -185 0 -109 25 -167 81 -188 31 -12
41 -11 73 2 53 22 76 77 76 186 0 108 -23 164 -74 185 -42 18 -42 18 -84 0z"/>
<path d="M9409 6861 c-52 -17 -79 -42 -79 -75 0 -75 74 -134 143 -115 19 5 40
16 46 23 34 41 30 129 -7 152 -27 17 -74 24 -103 15z"/>
<path d="M9809 6861 c-52 -17 -79 -42 -79 -75 0 -75 74 -134 143 -115 19 5 40
16 46 23 34 41 30 129 -7 152 -27 17 -74 24 -103 15z"/>
<path d="M2728 6902 l-78 -117 76 -3 c42 -2 78 -1 81 1 2 2 2 56 1 120 l-3
115 -77 -116z"/>
<path d="M2663 6259 c-18 -5 -39 -19 -48 -31 -22 -32 -19 -100 5 -130 34 -44
122 -42 175 5 23 20 24 25 14 64 -19 72 -79 110 -146 92z"/>
<path d="M8999 6071 c-52 -17 -79 -42 -79 -75 0 -75 74 -134 143 -115 19 5 40
16 46 23 34 41 30 129 -7 152 -27 17 -74 24 -103 15z"/>
<path d="M9388 6112 l-78 -117 76 -3 c42 -2 78 -1 81 1 2 2 2 56 1 120 l-3
115 -77 -116z"/>
<path d="M8654 14617 c-31 -27 -27 -42 15 -50 55 -11 131 27 131 65 0 5 -27 8
-59 8 -48 0 -65 -5 -87 -23z"/>
<path d="M8990 14605 c44 -47 123 -52 168 -11 l24 21 -49 7 c-26 3 -75 7 -107
7 l-59 1 23 -25z"/>
<path d="M11800 14597 l-35 -22 118 -3 117 -3 0 -24 0 -25 -130 0 -130 0 0
-170 0 -170 33 20 c47 29 133 27 178 -3 53 -36 82 -97 87 -187 7 -129 -38
-233 -119 -276 -33 -16 -122 -19 -150 -3 -20 10 -20 8 -15 -118 3 -70 9 -204
12 -296 l6 -169 91 136 c90 135 90 136 128 136 l39 0 0 -160 0 -160 40 0 c36
0 40 -2 40 -25 0 -22 -4 -25 -40 -25 l-40 0 0 -55 c0 -54 0 -55 -30 -55 -30 0
-30 1 -30 55 l0 55 -98 0 -98 0 3 -62 c2 -35 12 -292 23 -573 11 -280 23 -533
26 -562 l5 -52 36 25 c43 29 126 33 179 8 38 -18 39 -21 20 -47 -13 -17 -17
-17 -65 -2 -48 16 -52 16 -88 -1 -42 -21 -83 -88 -83 -136 l0 -28 37 20 c46
24 122 26 169 4 46 -22 78 -89 71 -151 -6 -52 -29 -88 -78 -121 -28 -20 -44
-23 -94 -20 -33 2 -67 7 -75 11 -13 6 -15 -8 -12 -100 1 -60 5 -145 8 -191 l6
-82 34 30 c42 36 70 44 135 38 87 -9 144 -86 156 -210 15 -166 -61 -288 -179
-288 -52 0 -79 10 -115 43 l-23 20 1 -129 c1 -71 4 -196 8 -278 l6 -150 64 97
c62 95 64 97 102 97 l39 0 0 -160 0 -160 40 0 c36 0 40 -2 40 -25 0 -22 -4
-25 -40 -25 l-40 0 0 -55 c0 -54 0 -55 -30 -55 -30 0 -30 1 -30 55 l0 55 -75
0 -75 0 0 -210 0 -210 65 0 c57 0 65 -2 65 -19 0 -10 -31 -87 -69 -169 l-69
-150 -5 -274 c-3 -150 -3 -252 0 -225 l4 47 135 0 134 0 0 -25 c0 -24 -1 -24
-107 -27 l-108 -3 -3 -64 c-3 -58 -1 -63 15 -55 10 4 43 10 73 12 92 6 148
-47 157 -148 5 -57 -28 -125 -76 -157 -48 -33 -140 -32 -198 1 l-42 24 -5 -61
c-3 -34 -8 -171 -10 -304 -3 -193 -1 -251 11 -284 15 -44 10 -89 -13 -124 -18
-28 -42 -787 -25 -793 15 -5 14 -49 -1 -54 -14 -5 -17 -372 -4 -504 7 -63 5
-93 -8 -136 -12 -44 -16 -101 -16 -257 l0 -201 60 0 c57 0 60 -1 60 -25 0 -24
-3 -25 -55 -25 l-56 0 15 -29 c24 -45 70 -61 175 -61 l91 0 0 35 0 35 -45 -7
c-43 -5 -45 -5 -45 19 0 22 8 28 49 42 28 9 64 16 80 16 l31 0 0 -70 0 -70 55
0 c44 0 57 4 61 18 26 89 79 132 164 132 75 0 116 -27 150 -97 l25 -52 87 -1
88 0 46 70 c45 67 49 70 85 70 l39 0 0 -65 0 -65 105 0 105 0 0 30 c0 29 0 30
-45 23 -43 -5 -45 -5 -45 19 0 22 8 28 49 42 28 9 64 16 80 16 l31 0 0 -65 0
-65 58 0 c31 0 63 4 71 9 8 5 16 32 19 65 l4 56 134 0 134 0 0 -25 c0 -24 -1
-24 -107 -27 l-108 -3 -3 -32 -3 -33 195 0 196 0 0 25 c0 23 -2 24 -45 18 -43
-5 -45 -5 -45 19 0 22 8 28 49 42 28 9 64 16 80 16 31 0 31 0 31 -55 l0 -55
105 0 c98 0 105 1 105 20 0 18 -5 19 -45 13 -43 -5 -45 -5 -45 19 0 22 8 28
49 42 28 9 64 16 80 16 31 0 31 0 31 -55 l0 -55 68 0 c67 1 67 1 95 41 38 56
81 79 145 79 49 0 122 -23 122 -39 0 -3 -7 -14 -14 -24 -13 -17 -17 -18 -62
-2 -36 12 -54 13 -77 5 -33 -11 -67 -38 -67 -52 0 -4 71 -8 158 -8 l159 0 24
37 c13 21 40 48 59 61 30 20 44 23 97 20 53 -3 68 -9 94 -33 17 -17 37 -42 45
-57 12 -23 21 -28 52 -28 32 0 39 5 57 37 30 56 77 83 144 83 66 0 114 -25
139 -72 34 -63 45 -68 136 -68 l84 0 42 65 c40 62 44 65 81 65 l39 0 0 -69 0
-69 93 -6 c50 -4 133 -7 182 -9 l90 -2 3 31 c5 50 -24 76 -85 77 -41 1 -58 -5
-86 -26 -34 -26 -35 -26 -52 -7 -15 17 -16 22 -5 36 26 31 88 54 145 54 97 0
145 -40 145 -122 0 -57 -7 -54 169 -63 107 -5 126 -4 142 11 24 22 24 65 1 94
-28 34 -109 33 -155 -3 -34 -26 -35 -26 -52 -7 -15 17 -16 22 -5 36 45 53 175
72 237 34 44 -26 56 -54 51 -116 -5 -58 0 -64 52 -64 26 0 30 5 45 55 18 62
60 116 105 135 17 7 53 11 85 8 44 -4 62 -11 86 -34 35 -32 68 -97 69 -131 0
-30 26 -53 61 -53 27 0 29 3 29 38 0 20 3 67 7 105 l6 67 133 0 134 0 0 -25
c0 -24 -1 -24 -107 -27 l-108 -3 -3 -64 c-3 -58 -1 -63 15 -55 32 14 113 16
143 4 16 -6 36 -20 46 -31 15 -16 32 -19 124 -19 l108 0 36 76 c20 42 36 80
36 85 0 5 -54 9 -120 9 l-120 0 0 25 0 25 160 0 c189 0 181 8 120 -124 -21
-47 -34 -86 -28 -86 21 0 95 49 112 75 15 23 15 26 1 31 -14 6 -14 9 1 33 9
14 25 33 34 42 18 18 41 123 60 269 6 47 12 95 14 108 l3 23 -26 -24 c-39 -37
-65 -47 -116 -47 -55 0 -93 18 -129 60 -75 90 -73 296 4 384 40 45 78 59 145
54 58 -5 91 -26 125 -81 17 -27 17 -26 23 94 11 204 9 279 -8 279 -23 0 -85
33 -85 44 0 6 7 19 15 30 13 17 15 17 37 2 40 -29 48 -21 48 47 0 63 0 63 -35
75 -42 16 -85 65 -85 98 0 20 -5 24 -32 24 l-33 0 3 -49 c11 -154 -67 -271
-180 -271 -57 0 -96 17 -132 60 -29 36 -56 116 -56 172 l0 38 -47 -7 c-78 -10
-253 -146 -253 -195 0 -5 56 -8 125 -8 l125 0 0 -25 0 -25 -165 0 -165 0 6 28
c12 54 17 67 36 95 11 16 43 46 71 68 l50 40 -69 -6 c-136 -12 -129 -8 -147
-75 -18 -63 -61 -121 -108 -146 -38 -19 -120 -18 -164 3 -38 18 -42 28 -21 56
14 18 16 18 40 1 35 -22 96 -23 129 -1 29 19 56 65 68 115 8 37 5 38 -46 16
-31 -12 -59 -14 -145 -9 -133 9 -146 5 -154 -44 -13 -85 -87 -151 -168 -151
-83 0 -148 51 -170 134 l-11 41 -117 -5 c-100 -4 -121 -8 -140 -25 -20 -18
-50 -66 -50 -80 0 -3 56 -5 125 -5 l125 0 0 -25 0 -25 -165 0 -165 0 6 28 c12
54 17 67 36 95 l19 27 -50 0 c-46 0 -50 -2 -56 -28 -9 -43 -42 -90 -77 -112
-66 -40 -189 -20 -242 39 -20 22 -20 22 2 43 l22 22 28 -27 c55 -53 135 -55
177 -5 33 39 34 73 3 64 -13 -3 -98 -6 -190 -6 l-168 0 0 -45 0 -45 40 0 c36
0 40 -2 40 -25 l0 -25 -120 0 -120 0 0 25 c0 23 4 25 45 25 l45 0 0 40 0 40
-69 0 -69 0 -6 -33 c-7 -38 -47 -80 -89 -96 -47 -18 -146 -13 -192 9 -40 19
-75 63 -75 94 0 29 -38 19 -45 -13 -7 -33 -48 -75 -88 -90 -47 -18 -146 -13
-192 9 -41 20 -75 63 -75 95 0 13 -6 16 -22 11 -13 -3 -38 -6 -55 -6 l-33 0 0
-55 c0 -54 0 -55 -30 -55 -30 0 -30 1 -30 55 l0 55 -78 0 c-44 0 -126 3 -184
6 l-106 7 -27 -62 c-26 -57 -30 -61 -61 -61 -32 0 -33 1 -24 25 5 14 16 38 25
55 8 16 15 31 15 35 0 7 -116 6 -162 -1 -34 -6 -38 -10 -38 -35 0 -27 3 -29
40 -29 36 0 40 -2 40 -25 l0 -25 -120 0 -120 0 0 25 c0 23 4 25 46 25 l46 0
-4 73 c-3 39 -13 118 -23 175 -17 95 -20 102 -42 102 -31 0 -33 45 -2 55 21 7
22 11 15 114 -8 118 -25 736 -26 904 0 100 -1 107 -20 107 -17 0 -19 5 -14 33
4 17 13 45 20 61 20 42 20 274 -1 282 -12 5 -11 12 5 42 18 32 20 57 20 199
l0 163 -52 0 c-65 0 -127 29 -152 71 -37 62 -5 137 80 185 17 10 17 12 -13 28
-35 18 -63 61 -63 98 0 63 71 118 154 118 l46 0 0 162 c0 161 0 162 -26 189
l-26 27 26 17 c26 17 26 17 26 159 0 97 -4 146 -12 154 -9 9 -9 15 0 24 15 15
17 358 2 358 -12 0 -13 47 -1 52 5 2 12 81 16 176 7 155 6 172 -9 172 -20 0
-22 38 -2 54 10 8 15 53 20 172 l7 161 -30 12 c-16 7 -39 24 -52 37 l-23 24
22 22 22 22 30 -29 30 -29 0 81 c0 45 3 90 7 100 5 15 2 14 -19 -5 -22 -20
-30 -22 -48 -12 -16 9 -20 18 -16 38 3 15 8 71 11 125 l7 97 33 0 c31 0 33 2
39 46 3 26 6 96 6 155 l0 109 -45 0 -44 0 6 33 c10 53 20 74 56 114 34 37 34
40 41 153 l7 115 -25 -28 c-22 -24 -28 -26 -50 -16 -25 12 -25 12 -8 41 9 16
31 38 48 49 30 18 31 23 37 101 4 46 7 113 7 151 0 62 -2 67 -22 67 -37 0
-103 38 -122 71 -37 62 -5 137 80 185 17 10 17 12 -13 28 -35 18 -63 61 -63
98 0 56 71 118 134 118 l25 0 3 158 3 158 -25 -13 c-14 -7 -51 -13 -83 -13
-64 0 -117 21 -155 63 l-24 25 25 17 c24 15 26 15 50 -9 72 -72 207 -42 207
45 0 59 -28 82 -117 94 -46 6 -53 10 -53 30 0 20 6 23 54 30 94 11 134 68 88
125 -28 34 -109 33 -155 -3 -34 -26 -35 -26 -52 -7 -22 24 -10 42 48 72 30 15
53 19 101 16 33 -2 68 -7 77 -12 14 -6 17 10 22 136 3 79 3 155 0 170 -5 27
-6 27 -34 13 -15 -8 -52 -15 -81 -15 -64 0 -110 25 -139 75 -20 33 -24 35 -74
35 -78 0 -85 -5 -85 -56 0 -42 -1 -44 -30 -44 -29 0 -30 2 -30 46 l0 46 -57
-6 c-32 -3 -94 -8 -138 -12 -70 -5 -84 -9 -110 -34 -40 -38 -74 -50 -146 -50
-68 0 -116 17 -150 53 -13 14 -38 28 -55 32 -27 5 -35 2 -53 -23 -29 -41 -79
-62 -146 -62 -60 0 -103 17 -147 58 -21 19 -25 29 -17 39 9 11 -9 13 -102 13
-101 0 -118 -3 -149 -23z m540 -392 c43 -22 60 -53 60 -109 0 -43 -4 -53 -34
-81 l-35 -32 24 -11 c59 -27 79 -130 37 -189 -61 -85 -221 -85 -300 0 l-24 25
25 17 c24 15 26 15 50 -9 72 -72 207 -42 207 45 0 59 -28 82 -117 94 -46 6
-53 10 -53 30 0 20 6 23 54 30 94 11 134 68 88 125 -28 34 -109 33 -155 -3
-34 -26 -35 -26 -52 -7 -15 16 -16 22 -5 35 42 50 168 72 230 40z m391 -8 c53
-36 82 -97 87 -187 7 -129 -38 -233 -119 -276 -38 -19 -120 -18 -164 3 -38 18
-42 28 -21 56 14 18 16 18 40 1 35 -22 96 -23 129 -1 31 20 61 76 71 131 l7
38 -32 -23 c-47 -33 -141 -38 -186 -10 -47 30 -66 64 -67 124 0 63 24 111 74
144 46 32 134 32 181 0z m400 0 c53 -36 82 -97 87 -187 7 -129 -38 -233 -119
-276 -38 -19 -120 -18 -164 3 -38 18 -42 28 -21 56 14 18 16 18 40 1 35 -22
96 -23 129 -1 31 20 61 76 71 131 l7 38 -32 -23 c-47 -33 -141 -38 -186 -10
-47 30 -66 64 -67 124 0 63 24 111 74 144 46 32 134 32 181 0z m-690 -802 c42
-40 68 -101 76 -177 15 -166 -61 -288 -179 -288 -57 0 -96 17 -132 60 -71 85
-74 287 -4 375 40 51 76 66 145 63 53 -3 68 -9 94 -33z m425 19 c38 -18 39
-21 20 -47 -13 -17 -17 -17 -65 -2 -48 16 -52 16 -88 -1 -42 -21 -83 -88 -83
-136 l0 -28 37 20 c46 24 122 26 169 4 46 -22 78 -89 71 -151 -9 -86 -76 -143
-167 -143 -106 0 -168 74 -178 210 -8 120 34 223 111 270 40 25 125 27 173 4z
m372 -4 c63 -39 78 -135 31 -201 -10 -15 -55 -53 -100 -84 -69 -48 -119 -102
-119 -127 0 -5 56 -8 125 -8 l125 0 0 -25 0 -25 -165 0 -165 0 6 28 c13 57 17
68 41 100 14 18 59 58 102 89 42 31 84 65 93 77 22 26 23 84 3 113 -30 43
-116 34 -159 -17 -22 -27 -27 -29 -50 -19 -25 12 -25 12 -8 41 42 72 167 102
240 58z m-1092 -786 c38 -18 39 -21 20 -47 -13 -17 -17 -17 -65 -2 -48 16 -52
16 -88 -1 -42 -21 -83 -88 -83 -136 l0 -28 37 20 c46 24 122 26 169 4 46 -22
78 -89 71 -151 -9 -86 -76 -143 -167 -143 -106 0 -168 74 -178 210 -8 120 34
223 111 270 40 25 125 27 173 4z m705 -7 c53 -36 82 -97 87 -187 7 -129 -38
-233 -119 -276 -38 -19 -120 -18 -164 3 -38 18 -42 28 -21 56 14 18 16 18 40
1 35 -22 96 -23 129 -1 31 20 61 76 71 131 l7 38 -32 -23 c-47 -33 -141 -38
-186 -10 -47 30 -66 64 -67 124 0 63 24 111 74 144 46 32 134 32 181 0z m406
7 c44 -22 65 -54 67 -103 1 -42 -18 -71 -67 -101 l-28 -17 29 -12 c17 -7 43
-26 58 -42 24 -25 29 -39 29 -79 0 -83 -63 -130 -177 -130 -115 0 -186 58
-175 144 6 40 40 82 93 112 17 10 17 12 -13 28 -35 18 -63 61 -63 98 0 35 33
82 71 101 44 21 131 22 176 1z m-707 -13 c0 -10 -46 -118 -102 -240 l-102
-221 -33 0 c-39 0 -46 -21 71 229 47 102 86 188 86 193 0 4 -54 8 -120 8
l-120 0 0 25 0 25 160 0 c150 0 160 -1 160 -19z m-99 -796 c42 -40 68 -101 76
-177 15 -166 -61 -288 -179 -288 -57 0 -96 17 -132 60 -71 85 -74 287 -4 375
40 51 76 66 145 63 53 -3 68 -9 94 -33z m390 12 c53 -36 82 -97 87 -187 7
-129 -38 -233 -119 -276 -38 -19 -120 -18 -164 3 -38 18 -42 28 -21 56 14 18
16 18 40 1 35 -22 96 -23 129 -1 31 20 61 76 71 131 l7 38 -32 -23 c-47 -33
-141 -38 -186 -10 -47 30 -66 64 -67 124 0 63 24 111 74 144 46 32 134 32 181
0z m449 -12 c0 -24 -1 -24 -107 -27 l-108 -3 -3 -64 c-3 -58 -1 -63 15 -55 10
4 43 10 73 12 92 6 148 -47 157 -148 5 -57 -28 -125 -76 -157 -65 -44 -190
-25 -245 36 -20 22 -20 22 2 43 l22 22 28 -27 c84 -81 202 -39 202 72 0 57
-20 87 -65 100 -42 11 -89 0 -121 -30 -18 -17 -26 -19 -44 -9 -16 9 -20 18
-16 38 3 15 8 71 11 125 l7 97 134 0 134 0 0 -25z m-792 -775 c63 -39 78 -135
31 -201 -10 -15 -55 -53 -100 -84 -69 -48 -119 -102 -119 -127 0 -5 56 -8 125
-8 l125 0 0 -25 0 -25 -165 0 -165 0 6 28 c13 57 17 68 41 100 14 18 59 58
102 89 42 31 84 65 93 77 22 26 23 84 3 113 -30 43 -116 34 -159 -17 -22 -27
-27 -29 -50 -19 -25 12 -25 12 -8 41 42 72 167 102 240 58z m379 4 c44 -22 65
-54 67 -103 1 -42 -18 -71 -67 -101 l-28 -17 29 -12 c17 -7 43 -26 58 -42 24
-25 29 -39 29 -79 0 -83 -63 -130 -177 -130 -115 0 -186 58 -175 144 6 40 40
82 93 112 17 10 17 12 -13 28 -35 18 -63 61 -63 98 0 35 33 82 71 101 44 21
131 22 176 1z m423 -154 l0 -160 40 0 c36 0 40 -2 40 -25 0 -22 -4 -25 -40
-25 l-40 0 0 -55 c0 -54 0 -55 -30 -55 -30 0 -30 1 -30 55 l0 55 -115 0 -115
0 0 25 c0 15 42 88 107 185 l106 160 39 0 38 0 0 -160z m-839 -643 c53 -36 82
-97 87 -187 7 -129 -38 -233 -119 -276 -38 -19 -120 -18 -164 3 -38 18 -42 28
-21 56 14 18 16 18 40 1 35 -22 96 -23 129 -1 31 20 61 76 71 131 l7 38 -32
-23 c-47 -33 -141 -38 -186 -10 -47 30 -66 64 -67 124 0 63 24 111 74 144 46
32 134 32 181 0z m389 8 c43 -22 60 -53 60 -109 0 -43 -4 -53 -34 -81 l-35
-32 24 -11 c59 -27 79 -130 37 -189 -61 -85 -221 -85 -300 0 l-24 25 25 17
c24 15 26 15 50 -9 72 -72 207 -42 207 45 0 59 -28 82 -117 94 -46 6 -53 10
-53 30 0 20 6 23 54 30 94 11 134 68 88 125 -28 34 -109 33 -155 -3 -34 -26
-35 -26 -52 -7 -15 16 -16 22 -5 35 42 50 168 72 230 40z m431 -20 c42 -40 68
-101 76 -177 15 -166 -61 -288 -179 -288 -57 0 -96 17 -132 60 -71 85 -74 287
-4 375 40 51 76 66 145 63 53 -3 68 -9 94 -33z m-565 -771 c38 -18 39 -21 20
-47 -13 -17 -17 -17 -65 -2 -48 16 -52 16 -88 -1 -42 -21 -83 -88 -83 -136 l0
-28 37 20 c46 24 122 26 169 4 46 -22 78 -89 71 -151 -9 -86 -76 -143 -167
-143 -106 0 -168 74 -178 210 -8 120 34 223 111 270 40 25 125 27 173 4z
m-366 -19 c0 -24 -1 -24 -107 -27 l-108 -3 -3 -64 c-3 -58 -1 -63 15 -55 10 4
43 10 73 12 92 6 148 -47 157 -148 5 -57 -28 -125 -76 -157 -65 -44 -190 -25
-245 36 -20 22 -20 22 2 43 l22 22 28 -27 c84 -81 202 -39 202 72 0 57 -20 87
-65 100 -42 11 -89 0 -121 -30 -18 -17 -26 -19 -44 -9 -16 9 -20 18 -16 38 3
15 8 71 11 125 l7 97 134 0 134 0 0 -25z m760 -135 l0 -160 40 0 c36 0 40 -2
40 -25 0 -22 -4 -25 -40 -25 l-40 0 0 -55 c0 -54 0 -55 -30 -55 -30 0 -30 1
-30 55 l0 55 -115 0 -115 0 0 25 c0 15 42 88 107 185 l106 160 39 0 38 0 0
-160z m-604 -636 c38 -18 39 -21 20 -47 -13 -17 -17 -17 -65 -2 -48 16 -52 16
-88 -1 -42 -21 -83 -88 -83 -136 l0 -28 37 20 c46 24 122 26 169 4 46 -22 78
-89 71 -151 -9 -86 -76 -143 -167 -143 -106 0 -168 74 -178 210 -8 120 34 223
111 270 40 25 125 27 173 4z m400 0 c38 -18 39 -21 20 -47 -13 -17 -17 -17
-65 -2 -48 16 -52 16 -88 -1 -42 -21 -83 -88 -83 -136 l0 -28 37 20 c46 24
122 26 169 4 46 -22 78 -89 71 -151 -9 -86 -76 -143 -167 -143 -106 0 -168 74
-178 210 -8 120 34 223 111 270 40 25 125 27 173 4z m355 -7 c53 -36 82 -97
87 -187 7 -129 -38 -233 -119 -276 -38 -19 -120 -18 -164 3 -38 18 -42 28 -21
56 14 18 16 18 40 1 35 -22 96 -23 129 -1 31 20 61 76 71 131 l7 38 -32 -23
c-47 -33 -141 -38 -186 -10 -47 30 -66 64 -67 124 0 63 24 111 74 144 46 32
134 32 181 0z m-1055 -783 c38 -18 39 -21 20 -47 -13 -17 -17 -17 -65 -2 -48
16 -52 16 -88 -1 -42 -21 -83 -88 -83 -136 l0 -28 37 20 c46 24 122 26 169 4
46 -22 78 -89 71 -151 -9 -86 -76 -143 -167 -143 -106 0 -168 74 -178 210 -8
120 34 223 111 270 40 25 125 27 173 4z m405 -19 c42 -40 68 -101 76 -177 15
-166 -61 -288 -179 -288 -57 0 -96 17 -132 60 -71 85 -74 287 -4 375 40 51 76
66 145 63 53 -3 68 -9 94 -33z m717 15 c63 -39 78 -135 31 -201 -10 -15 -55
-53 -100 -84 -69 -48 -119 -102 -119 -127 0 -5 56 -8 125 -8 l125 0 0 -25 0
-25 -165 0 -165 0 6 28 c13 57 17 68 41 100 14 18 59 58 102 89 42 31 84 65
93 77 22 26 23 84 3 113 -30 43 -116 34 -159 -17 -22 -27 -27 -29 -50 -19 -25
12 -25 12 -8 41 42 72 167 102 240 58z m-288 -9 c0 -10 -46 -118 -102 -240
l-102 -221 -33 0 c-39 0 -46 -21 71 229 47 102 86 188 86 193 0 4 -54 8 -120
8 l-120 0 0 25 0 25 160 0 c150 0 160 -1 160 -19z m-163 -777 c44 -22 65 -54
67 -103 1 -42 -18 -71 -67 -101 l-28 -17 29 -12 c17 -7 43 -26 58 -42 24 -25
29 -39 29 -79 0 -83 -63 -130 -177 -130 -115 0 -186 58 -175 144 6 40 40 82
93 112 17 10 17 12 -13 28 -35 18 -63 61 -63 98 0 35 33 82 71 101 44 21 131
22 176 1z m400 0 c44 -22 65 -54 67 -103 1 -42 -18 -71 -67 -101 l-28 -17 29
-12 c17 -7 43 -26 58 -42 24 -25 29 -39 29 -79 0 -83 -63 -130 -177 -130 -115
0 -186 58 -175 144 6 40 40 82 93 112 17 10 17 12 -13 28 -35 18 -63 61 -63
98 0 35 33 82 71 101 44 21 131 22 176 1z m-1117 -19 c0 -24 -1 -24 -107 -27
l-108 -3 -3 -64 c-3 -58 -1 -63 15 -55 10 4 43 10 73 12 92 6 148 -47 157
-148 5 -57 -28 -125 -76 -157 -65 -44 -190 -25 -245 36 -20 22 -20 22 2 43
l22 22 28 -27 c84 -81 202 -39 202 72 0 57 -20 87 -65 100 -42 11 -89 0 -121
-30 -18 -17 -26 -19 -44 -9 -16 9 -20 18 -16 38 3 15 8 71 11 125 l7 97 134 0
134 0 0 -25z m380 0 c0 -24 -1 -24 -107 -27 l-108 -3 -3 -64 c-3 -58 -1 -63
15 -55 10 4 43 10 73 12 92 6 148 -47 157 -148 5 -57 -28 -125 -76 -157 -65
-44 -190 -25 -245 36 -20 22 -20 22 2 43 l22 22 28 -27 c84 -81 202 -39 202
72 0 57 -20 87 -65 100 -42 11 -89 0 -121 -30 -18 -17 -26 -19 -44 -9 -16 9
-20 18 -16 38 3 15 8 71 11 125 l7 97 134 0 134 0 0 -25z m-422 -775 c63 -39
78 -135 31 -201 -10 -15 -55 -53 -100 -84 -69 -48 -119 -102 -119 -127 0 -5
56 -8 125 -8 l125 0 0 -25 0 -25 -165 0 -165 0 6 28 c13 57 17 68 41 100 14
18 59 58 102 89 42 31 84 65 93 77 22 26 23 84 3 113 -30 43 -116 34 -159 -17
-22 -27 -27 -29 -50 -19 -25 12 -25 12 -8 41 42 72 167 102 240 58z m743 -3
c53 -36 82 -97 87 -187 7 -129 -38 -233 -119 -276 -38 -19 -120 -18 -164 3
-38 18 -42 28 -21 56 14 18 16 18 40 1 35 -22 96 -23 129 -1 31 20 61 76 71
131 l7 38 -32 -23 c-47 -33 -141 -38 -186 -10 -47 30 -66 64 -67 124 0 63 24
111 74 144 46 32 134 32 181 0z m440 -12 c42 -40 68 -101 76 -177 15 -166 -61
-288 -179 -288 -57 0 -96 17 -132 60 -71 85 -74 287 -4 375 40 51 76 66 145
63 53 -3 68 -9 94 -33z m379 20 c43 -22 60 -53 60 -109 0 -43 -4 -53 -34 -81
l-35 -32 24 -11 c59 -27 79 -130 37 -189 -61 -85 -221 -85 -300 0 l-24 25 25
17 c24 15 26 15 50 -9 72 -72 207 -42 207 45 0 59 -28 82 -117 94 -46 6 -53
10 -53 30 0 20 6 23 54 30 94 11 134 68 88 125 -28 34 -109 33 -155 -3 -34
-26 -35 -26 -52 -7 -15 16 -16 22 -5 35 42 50 168 72 230 40z m426 -1 c38 -18
39 -21 20 -47 -13 -17 -17 -17 -65 -2 -48 16 -52 16 -88 -1 -42 -21 -83 -88
-83 -136 l0 -28 37 20 c46 24 122 26 169 4 46 -22 78 -89 71 -151 -9 -86 -76
-143 -167 -143 -106 0 -168 74 -178 210 -8 120 34 223 111 270 40 25 125 27
173 4z m405 -19 c42 -40 68 -101 76 -177 15 -166 -61 -288 -179 -288 -57 0
-96 17 -132 60 -71 85 -74 287 -4 375 40 51 76 66 145 63 53 -3 68 -9 94 -33z
m430 0 c42 -40 68 -101 76 -177 15 -166 -61 -288 -179 -288 -57 0 -96 17 -132
60 -71 85 -74 287 -4 375 40 51 76 66 145 63 53 -3 68 -9 94 -33z m939 20 c43
-22 60 -53 60 -109 0 -43 -4 -53 -34 -81 l-35 -32 24 -11 c59 -27 79 -130 37
-189 -61 -85 -221 -85 -300 0 l-24 25 25 17 c24 15 26 15 50 -9 72 -72 207
-42 207 45 0 59 -28 82 -117 94 -46 6 -53 10 -53 30 0 20 6 23 54 30 94 11
134 68 88 125 -28 34 -109 33 -155 -3 -34 -26 -35 -26 -52 -7 -15 16 -16 22
-5 35 42 50 168 72 230 40z m390 0 c43 -22 60 -53 60 -109 0 -43 -4 -53 -34
-81 l-35 -32 24 -11 c59 -27 79 -130 37 -189 -61 -85 -221 -85 -300 0 l-24 25
25 17 c24 15 26 15 50 -9 72 -72 207 -42 207 45 0 59 -28 82 -117 94 -46 6
-53 10 -53 30 0 20 6 23 54 30 94 11 134 68 88 125 -28 34 -109 33 -155 -3
-34 -26 -35 -26 -52 -7 -15 16 -16 22 -5 35 42 50 168 72 230 40z m431 -20
c42 -40 68 -101 76 -177 15 -166 -61 -288 -179 -288 -57 0 -96 17 -132 60 -71
85 -74 287 -4 375 40 51 76 66 145 63 53 -3 68 -9 94 -33z m769 20 c43 -22 60
-53 60 -109 0 -43 -4 -53 -34 -81 l-35 -32 24 -11 c59 -27 79 -130 37 -189
-61 -85 -221 -85 -300 0 l-24 25 25 17 c24 15 26 15 50 -9 72 -72 207 -42 207
45 0 59 -28 82 -117 94 -46 6 -53 10 -53 30 0 20 6 23 54 30 94 11 134 68 88
125 -28 34 -109 33 -155 -3 -34 -26 -35 -26 -52 -7 -15 16 -16 22 -5 35 42 50
168 72 230 40z m-4930 -20 c0 -24 -1 -24 -107 -27 l-108 -3 -3 -64 c-3 -58 -1
-63 15 -55 10 4 43 10 73 12 92 6 148 -47 157 -148 5 -57 -28 -125 -76 -157
-65 -44 -190 -25 -245 36 -20 22 -20 22 2 43 l22 22 28 -27 c84 -81 202 -39
202 72 0 57 -20 87 -65 100 -42 11 -89 0 -121 -30 -18 -17 -26 -19 -44 -9 -16
9 -20 18 -16 38 3 15 8 71 11 125 l7 97 134 0 134 0 0 -25z m2700 -190 l0
-215 40 0 c36 0 40 -2 40 -25 l0 -25 -120 0 -120 0 0 25 c0 23 4 25 45 25 l45
0 0 180 0 180 -45 -7 c-43 -5 -45 -5 -45 20 0 21 8 28 43 40 23 8 59 15 80 16
l37 1 0 -215z m280 0 l0 -215 40 0 c36 0 40 -2 40 -25 l0 -25 -120 0 -120 0 0
25 c0 23 4 25 45 25 l45 0 0 180 0 180 -45 -7 c-43 -5 -45 -5 -45 20 0 21 8
28 43 40 23 8 59 15 80 16 l37 1 0 -215z m1620 190 c0 -24 -1 -24 -107 -27
l-108 -3 -3 -64 c-3 -58 -1 -63 15 -55 10 4 43 10 73 12 92 6 148 -47 157
-148 5 -57 -28 -125 -76 -157 -65 -44 -190 -25 -245 36 -20 22 -20 22 2 43
l22 22 28 -27 c84 -81 202 -39 202 72 0 57 -20 87 -65 100 -42 11 -89 0 -121
-30 -18 -17 -26 -19 -44 -9 -16 9 -20 18 -16 38 3 15 8 71 11 125 l7 97 134 0
134 0 0 -25z"/>
<path d="M12603 14159 c-18 -5 -39 -19 -48 -31 -22 -32 -19 -100 5 -130 34
-44 122 -42 175 5 23 20 24 25 14 64 -19 72 -79 110 -146 92z"/>
<path d="M13003 14159 c-18 -5 -39 -19 -48 -31 -22 -32 -19 -100 5 -130 34
-44 122 -42 175 5 23 20 24 25 14 64 -19 72 -79 110 -146 92z"/>
<path d="M12292 13365 c-49 -21 -72 -79 -72 -185 0 -109 25 -167 81 -188 31
-12 41 -11 73 2 53 22 76 77 76 186 0 108 -23 164 -74 185 -42 18 -42 18 -84
0z"/>
<path d="M12729 13181 c-52 -17 -79 -42 -79 -75 0 -75 74 -134 143 -115 19 5
40 16 46 23 34 41 30 129 -7 152 -27 17 -74 24 -103 15z"/>
<path d="M12009 12391 c-52 -17 -79 -42 -79 -75 0 -75 74 -134 143 -115 19 5
40 16 46 23 34 41 30 129 -7 152 -27 17 -74 24 -103 15z"/>
<path d="M12723 12579 c-18 -5 -39 -19 -48 -31 -22 -32 -19 -100 5 -130 34
-44 122 -42 175 5 23 20 24 25 14 64 -19 72 -79 110 -146 92z"/>
<path d="M13137 12580 c-41 -12 -57 -29 -57 -61 0 -31 17 -52 61 -74 26 -14
32 -14 58 0 44 22 61 43 61 75 0 46 -64 77 -123 60z"/>
<path d="M13130 12360 c-52 -27 -72 -53 -68 -91 4 -46 42 -71 108 -71 68 0
104 25 108 75 3 30 -2 39 -30 60 -54 42 -79 47 -118 27z"/>
<path d="M12302 11785 c-49 -21 -72 -79 -72 -185 0 -109 25 -167 81 -188 31
-12 41 -11 73 2 53 22 76 77 76 186 0 108 -23 164 -74 185 -42 18 -42 18 -84
0z"/>
<path d="M12713 11789 c-18 -5 -39 -19 -48 -31 -22 -32 -19 -100 5 -130 34
-44 122 -42 175 5 23 20 24 25 14 64 -19 72 -79 110 -146 92z"/>
<path d="M12757 11000 c-41 -12 -57 -29 -57 -61 0 -31 17 -52 61 -74 26 -14
32 -14 58 0 44 22 61 43 61 75 0 46 -64 77 -123 60z"/>
<path d="M12750 10780 c-52 -27 -72 -53 -68 -91 4 -46 42 -71 108 -71 68 0
104 25 108 75 3 30 -2 39 -30 60 -54 42 -79 47 -118 27z"/>
<path d="M13158 10852 l-78 -117 76 -3 c42 -2 78 -1 81 1 2 2 2 56 1 120 l-3
115 -77 -116z"/>
<path d="M12333 10209 c-18 -5 -39 -19 -48 -31 -22 -32 -19 -100 5 -130 34
-44 122 -42 175 5 23 20 24 25 14 64 -19 72 -79 110 -146 92z"/>
<path d="M13132 10205 c-49 -21 -72 -79 -72 -185 0 -109 25 -167 81 -188 31
-12 41 -11 73 2 53 22 76 77 76 186 0 108 -23 164 -74 185 -42 18 -42 18 -84
0z"/>
<path d="M12579 9231 c-52 -17 -79 -42 -79 -75 0 -75 74 -134 143 -115 19 5
40 16 46 23 34 41 30 129 -7 152 -27 17 -74 24 -103 15z"/>
<path d="M12968 9272 l-78 -117 76 -3 c42 -2 78 -1 81 1 2 2 2 56 1 120 l-3
115 -77 -116z"/>
<path d="M12369 8441 c-52 -17 -79 -42 -79 -75 0 -75 74 -134 143 -115 19 5
40 16 46 23 34 41 30 129 -7 152 -27 17 -74 24 -103 15z"/>
<path d="M12769 8441 c-52 -17 -79 -42 -79 -75 0 -75 74 -134 143 -115 19 5
40 16 46 23 34 41 30 129 -7 152 -27 17 -74 24 -103 15z"/>
<path d="M13133 8629 c-18 -5 -39 -19 -48 -31 -22 -32 -19 -100 5 -130 34 -44
122 -42 175 5 23 20 24 25 14 64 -19 72 -79 110 -146 92z"/>
<path d="M12069 7651 c-52 -17 -79 -42 -79 -75 0 -75 74 -134 143 -115 19 5
40 16 46 23 34 41 30 129 -7 152 -27 17 -74 24 -103 15z"/>
<path d="M12462 7835 c-49 -21 -72 -79 -72 -185 0 -109 25 -167 81 -188 31
-12 41 -11 73 2 53 22 76 77 76 186 0 108 -23 164 -74 185 -42 18 -42 18 -84
0z"/>
<path d="M12757 7050 c-41 -12 -57 -29 -57 -61 0 -31 17 -52 61 -74 26 -14 32
-14 58 0 44 22 61 43 61 75 0 46 -64 77 -123 60z"/>
<path d="M12750 6830 c-52 -27 -72 -53 -68 -91 4 -46 42 -71 108 -71 68 0 104
25 108 75 3 30 -2 39 -30 60 -54 42 -79 47 -118 27z"/>
<path d="M13157 7050 c-41 -12 -57 -29 -57 -61 0 -31 17 -52 61 -74 26 -14 32
-14 58 0 44 22 61 43 61 75 0 46 -64 77 -123 60z"/>
<path d="M13150 6830 c-52 -27 -72 -53 -68 -91 4 -46 42 -71 108 -71 68 0 104
25 108 75 3 30 -2 39 -30 60 -54 42 -79 47 -118 27z"/>
<path d="M12733 6259 c-18 -5 -39 -19 -48 -31 -22 -32 -19 -100 5 -130 34 -44
122 -42 175 5 23 20 24 25 14 64 -19 72 -79 110 -146 92z"/>
<path d="M13152 6255 c-49 -21 -72 -79 -72 -185 0 -109 25 -167 81 -188 31
-12 41 -11 73 2 53 22 76 77 76 186 0 108 -23 164 -74 185 -42 18 -42 18 -84
0z"/>
<path d="M13969 6071 c-52 -17 -79 -42 -79 -75 0 -75 74 -134 143 -115 19 5
40 16 46 23 34 41 30 129 -7 152 -27 17 -74 24 -103 15z"/>
<path d="M14362 6255 c-49 -21 -72 -79 -72 -185 0 -109 25 -167 81 -188 31
-12 41 -11 73 2 53 22 76 77 76 186 0 108 -23 164 -74 185 -42 18 -42 18 -84
0z"/>
<path d="M14792 6255 c-49 -21 -72 -79 -72 -185 0 -109 25 -167 81 -188 31
-12 41 -11 73 2 53 22 76 77 76 186 0 108 -23 164 -74 185 -42 18 -42 18 -84
0z"/>
<path d="M16552 6255 c-49 -21 -72 -79 -72 -185 0 -109 25 -167 81 -188 31
-12 41 -11 73 2 53 22 76 77 76 186 0 108 -23 164 -74 185 -42 18 -42 18 -84
0z"/>
<path d="M12118 14600 c36 -30 90 -41 134 -30 20 6 40 15 43 20 7 12 -21 18
-120 24 -80 5 -80 5 -57 -14z"/>
<path d="M13351 14603 c25 -29 73 -43 113 -32 20 5 36 14 36 20 0 16 -48 29
-107 29 -50 0 -54 -1 -42 -17z"/>
<path d="M9391 14594 c23 -22 82 -33 125 -24 20 5 44 16 53 24 14 15 6 16 -89
16 -95 0 -103 -1 -89 -16z"/>
<path d="M12554 14579 c10 -6 40 -11 66 -11 26 0 56 5 66 11 15 8 0 10 -66 10
-66 0 -81 -2 -66 -10z"/>
<path d="M2133 14573 c9 -2 23 -2 30 0 6 3 -1 5 -18 5 -16 0 -22 -2 -12 -5z"/>
<path d="M8640 14157 c-32 -11 -35 -15 -38 -57 -3 -44 -1 -47 37 -68 38 -21
42 -22 70 -8 44 23 61 44 61 76 0 49 -67 78 -130 57z"/>
<path d="M11823 14159 c-18 -5 -39 -19 -48 -31 -22 -32 -19 -100 5 -130 34
-44 122 -42 175 5 23 20 24 25 14 64 -19 72 -79 110 -146 92z"/>
<path d="M7801 14097 c-25 -52 -29 -193 -6 -242 11 -26 13 -27 14 -9 2 37 21
227 26 262 8 45 -9 40 -34 -11z"/>
<path d="M13516 13991 c-3 -5 1 -11 9 -15 9 -3 15 0 15 9 0 16 -16 20 -24 6z"/>
<path d="M8637 13939 c-37 -19 -37 -20 -37 -84 0 -72 7 -79 89 -77 59 0 95 28
99 75 3 30 -2 39 -30 60 -55 42 -78 47 -121 26z"/>
<path d="M11945 13937 c-23 -17 -43 -22 -95 -22 -36 0 -73 4 -82 9 -16 7 -18
2 -18 -53 0 -54 3 -62 25 -77 34 -22 95 -23 128 -1 31 20 61 76 71 130 4 20 6
37 4 37 -2 0 -16 -11 -33 -23z"/>
<path d="M8616 13281 c4 -53 8 -98 10 -100 7 -8 55 11 79 32 23 20 24 25 14
62 -13 47 -51 91 -85 98 l-25 4 7 -96z"/>
<path d="M13497 13370 c-16 -5 -35 -14 -43 -21 -19 -15 -18 -64 2 -83 18 -18
54 -39 59 -34 1 2 5 36 7 76 2 39 4 72 3 71 0 0 -13 -5 -28 -9z"/>
<path d="M4565 13345 c-34 -33 -35 -103 -2 -140 18 -21 32 -27 67 -27 53 -1
115 26 103 45 -5 7 -30 43 -56 80 -54 74 -73 82 -112 42z"/>
<path d="M14330 13280 c0 -49 4 -90 9 -90 5 0 23 16 40 35 22 25 31 46 31 70
0 39 -29 75 -60 75 -19 0 -20 -7 -20 -90z"/>
<path d="M11888 13222 l-78 -117 76 -3 c42 -2 78 -1 81 1 2 2 2 56 1 120 l-3
115 -77 -116z"/>
<path d="M7772 13150 l-32 -50 35 0 35 0 0 50 c0 28 -1 50 -2 50 -2 0 -18 -23
-36 -50z"/>
<path d="M8700 13150 c-14 -11 -37 -22 -52 -25 -27 -6 -28 -9 -28 -71 0 -35 3
-64 8 -64 18 0 54 34 71 68 16 33 37 112 29 112 -2 0 -14 -9 -28 -20z"/>
<path d="M13485 13148 c-70 -38 -87 -99 -39 -137 56 -44 74 -20 74 95 0 57 -3
60 -35 42z"/>
<path d="M2130 12509 l0 -80 29 16 c44 22 61 43 61 74 0 33 -15 48 -59 61
l-31 9 0 -80z"/>
<path d="M8656 12413 c-17 -5 -18 -12 -11 -106 4 -56 9 -105 11 -109 10 -16
70 5 97 33 37 40 39 118 2 154 -13 14 -31 25 -39 25 -8 0 -20 2 -28 4 -7 2
-21 1 -32 -1z"/>
<path d="M2130 12308 c0 -86 7 -108 35 -108 38 0 75 37 75 76 0 28 -7 39 -42
64 -61 44 -68 41 -68 -32z"/>
<path d="M7806 12304 c-9 -24 -7 -62 4 -69 6 -4 10 12 10 39 0 48 -4 56 -14
30z"/>
<path d="M13477 12226 c-4 -10 -5 -21 -2 -24 9 -9 17 6 13 25 -3 17 -4 17 -11
-1z"/>
<path d="M3935 11793 c-11 -3 -24 -9 -29 -13 -8 -8 80 -130 94 -130 4 0 19 9
34 21 31 24 35 67 9 97 -19 21 -73 33 -108 25z"/>
<path d="M2150 11628 c0 -222 10 -250 58 -158 45 89 22 278 -37 310 -21 11
-21 10 -21 -152z"/>
<path d="M13457 11783 c-11 -10 -8 -123 3 -123 6 0 10 28 10 65 0 65 -1 71
-13 58z"/>
<path d="M5831 11709 c-6 -18 -11 -69 -11 -113 0 -105 26 -164 82 -184 33 -13
41 -12 75 4 22 11 42 30 47 45 8 23 -2 40 -87 153 l-95 126 -11 -31z"/>
<path d="M14313 11618 c-31 -8 -31 -10 -38 -81 -11 -117 -9 -121 53 -125 47
-3 56 0 82 27 25 25 30 37 30 79 0 79 -52 120 -127 100z"/>
<path d="M11910 11601 c-57 -18 -70 -33 -70 -81 0 -54 20 -87 65 -106 36 -15
94 -5 114 20 34 41 30 129 -7 152 -26 17 -74 24 -102 15z"/>
<path d="M4575 11001 c-61 -19 -62 -25 -17 -85 48 -63 72 -70 116 -35 31 24
35 67 9 97 -19 22 -76 34 -108 23z"/>
<path d="M11962 10995 c-49 -21 -72 -79 -72 -185 0 -109 25 -167 81 -188 31
-12 41 -11 73 2 53 22 76 77 76 186 0 108 -23 164 -74 185 -42 18 -42 18 -84
0z"/>
<path d="M14260 10899 l0 -100 30 21 c46 32 70 69 70 106 0 43 -30 74 -70 74
l-30 0 0 -101z"/>
<path d="M2173 10920 c0 -25 2 -35 4 -22 2 12 2 32 0 45 -2 12 -4 2 -4 -23z"/>
<path d="M4682 10751 c13 -15 24 -27 26 -26 7 6 -18 43 -33 49 -12 4 -10 -2 7
-23z"/>
<path d="M6531 10754 c-57 -48 -36 -116 41 -133 39 -9 98 -3 98 10 0 5 -24 40
-54 79 l-54 70 -31 -26z"/>
<path d="M3497 10210 c-41 -12 -57 -29 -57 -61 0 -31 17 -52 61 -74 26 -14 32
-14 58 0 44 22 61 43 61 75 0 46 -64 77 -123 60z"/>
<path d="M5213 10205 c-17 -7 -38 -26 -46 -42 -15 -28 -14 -30 81 -157 l96
-129 13 29 c7 16 12 67 12 114 1 108 -22 164 -73 185 -42 18 -43 18 -83 0z"/>
<path d="M14263 10183 c-10 -3 -13 -49 -13 -179 0 -167 1 -174 20 -174 19 0
20 7 20 180 0 99 -3 180 -7 179 -5 0 -14 -3 -20 -6z"/>
<path d="M11953 10070 c-40 -61 -73 -114 -73 -120 0 -6 31 -10 75 -10 l75 0 0
120 c0 66 -1 120 -2 120 -2 0 -36 -50 -75 -110z"/>
<path d="M3680 10116 c0 -16 -65 -76 -83 -76 -7 -1 2 -8 18 -17 17 -8 40 -25
53 -36 l22 -20 0 81 c0 45 -2 82 -5 82 -3 0 -5 -6 -5 -14z"/>
<path d="M10193 10009 l-43 -64 41 -3 c23 -2 43 -1 46 1 2 3 3 33 1 68 l-3 63
-42 -65z"/>
<path d="M8718 9930 c3 -86 6 -100 20 -100 73 0 105 145 39 178 -63 31 -62 32
-59 -78z"/>
<path d="M3490 9990 c-52 -27 -72 -53 -68 -91 4 -46 42 -71 108 -71 68 0 104
25 108 75 3 30 -2 39 -30 60 -54 42 -79 47 -118 27z"/>
<path d="M7123 9993 c-47 -32 -15 -131 51 -158 34 -14 85 -8 86 10 0 7 -111
167 -114 164 -1 0 -11 -7 -23 -16z"/>
<path d="M3647 9420 c-16 -5 -35 -14 -43 -21 -19 -15 -18 -64 2 -84 26 -26 75
-48 86 -37 12 12 6 145 -7 148 -5 1 -23 -2 -38 -6z"/>
<path d="M13367 9420 c-42 -13 -57 -29 -57 -61 0 -47 72 -99 110 -79 17 9 20
21 20 75 0 36 -4 65 -9 65 -5 0 -15 2 -23 4 -7 2 -26 0 -41 -4z"/>
<path d="M8720 9355 c0 -68 6 -77 33 -47 21 23 22 61 1 90 -25 36 -34 25 -34
-43z"/>
<path d="M11876 9398 c-3 -13 -6 -43 -5 -68 l0 -45 29 55 c36 68 37 80 6 80
-16 0 -26 -7 -30 -22z"/>
<path d="M14252 9355 c0 -16 2 -22 5 -12 2 9 2 23 0 30 -3 6 -5 -1 -5 -18z"/>
<path d="M2168 9137 c-2 -45 -2 -84 -1 -86 7 -11 34 25 42 55 11 40 -2 99 -23
107 -12 5 -15 -11 -18 -76z"/>
<path d="M3640 9200 c-52 -27 -72 -53 -68 -91 4 -39 38 -67 88 -71 l35 -3 3
86 c3 99 -3 107 -58 79z"/>
<path d="M13365 9203 c-74 -38 -98 -99 -56 -137 23 -21 83 -36 112 -29 18 5
20 12 17 86 -3 70 -6 81 -23 87 -13 5 -32 2 -50 -7z"/>
<path d="M8720 9120 c0 -77 1 -80 20 -70 43 23 54 96 20 130 -34 34 -40 24
-40 -60z"/>
<path d="M14262 9120 c0 -19 2 -27 5 -17 2 9 2 25 0 35 -3 9 -5 1 -5 -18z"/>
<path d="M3527 8630 c-41 -12 -57 -29 -57 -61 0 -31 17 -52 61 -74 26 -14 32
-14 58 0 44 22 61 43 61 75 0 46 -64 77 -123 60z"/>
<path d="M6290 8635 c0 -7 81 -115 86 -115 12 0 1 71 -13 88 -17 18 -73 39
-73 27z"/>
<path d="M8762 8625 c-18 -8 -37 -26 -42 -40 -17 -44 -13 -277 5 -302 24 -34
76 -47 119 -29 53 22 76 77 76 186 0 108 -23 164 -74 185 -42 18 -42 18 -84 0z"/>
<path d="M10197 8623 c-8 -7 -10 -123 -2 -123 2 0 16 5 30 12 22 10 25 17 25
65 0 49 -2 53 -23 53 -13 0 -27 -3 -30 -7z"/>
<path d="M14323 8501 c-35 -54 -63 -108 -63 -120 0 -19 5 -21 65 -21 l65 0 0
120 c0 66 -1 120 -2 120 -2 0 -31 -45 -65 -99z"/>
<path d="M3689 8503 c-8 -9 -27 -24 -44 -35 -16 -10 -25 -18 -19 -18 6 0 28
-11 48 -25 l36 -24 0 59 c0 33 -2 60 -4 60 -2 0 -10 -7 -17 -17z"/>
<path d="M11852 8485 c0 -16 2 -22 5 -12 2 9 2 23 0 30 -3 6 -5 -1 -5 -18z"/>
<path d="M8289 8482 c5 -10 18 -25 28 -33 12 -10 11 -5 -6 19 -24 35 -38 43
-22 14z"/>
<path d="M11966 8460 c-16 -5 -39 -19 -51 -30 -19 -18 -27 -20 -44 -11 -20 11
-21 10 -21 -54 0 -45 3 -64 11 -59 6 3 23 -6 38 -20 55 -52 134 -54 176 -4 35
42 35 118 0 153 -13 14 -31 25 -39 25 -8 0 -20 2 -28 4 -7 2 -26 0 -42 -4z"/>
<path d="M3520 8410 c-52 -27 -72 -53 -68 -91 4 -46 42 -71 108 -71 68 0 104
25 108 75 3 30 -2 39 -30 60 -54 42 -79 47 -118 27z"/>
<path d="M5420 8361 c0 -27 30 -81 54 -97 41 -26 40 -12 -4 46 -48 64 -50 66
-50 51z"/>
<path d="M2116 7797 c-3 -28 -8 -118 -12 -199 -7 -161 -8 -158 52 -133 51 21
74 77 74 185 0 104 -25 166 -77 187 l-32 12 -5 -52z"/>
<path d="M14407 7839 c-35 -9 -57 -27 -57 -45 0 -8 25 -40 56 -72 l55 -57 30
33 c32 35 39 85 17 115 -17 23 -67 36 -101 26z"/>
<path d="M3671 7824 c-28 -20 -60 -88 -61 -127 l0 -27 37 20 c21 11 46 20 55
20 15 0 18 10 18 65 0 70 -7 78 -49 49z"/>
<path d="M5697 7829 c-58 -34 -79 -222 -34 -309 44 -88 147 -87 187 2 22 49
28 187 9 235 -19 52 -58 83 -103 83 -23 0 -49 -5 -59 -11z"/>
<path d="M6977 7780 c-18 -30 -18 -32 0 -58 l18 -27 3 33 c2 18 2 44 0 58 l-3
26 -18 -32z"/>
<path d="M3689 7650 c-53 -16 -79 -40 -79 -75 0 -42 37 -95 78 -112 l32 -13 0
105 c0 58 -1 105 -2 104 -2 0 -15 -4 -29 -9z"/>
<path d="M2078 6962 c-2 -53 -2 -100 2 -104 9 -12 78 11 105 35 23 20 24 25
14 64 -12 46 -51 87 -91 97 l-26 6 -4 -98z"/>
<path d="M7807 7050 c-41 -12 -57 -29 -57 -61 0 -31 17 -52 61 -74 26 -14 32
-14 58 0 44 22 61 43 61 75 0 46 -64 77 -123 60z"/>
<path d="M10202 7045 c-49 -21 -72 -79 -72 -185 0 -110 25 -167 83 -189 23 -8
42 -10 47 -5 13 13 0 394 -14 394 -6 -1 -26 -7 -44 -15z"/>
<path d="M17595 6910 c-55 -11 -101 -19 -102 -19 -2 -1 -3 -27 -3 -59 0 -120
71 -193 154 -158 52 22 75 77 76 179 0 56 -3 77 -12 76 -7 -1 -58 -9 -113 -19z"/>
<path d="M17918 6904 c13 -25 42 -50 42 -37 0 5 -12 20 -26 34 -24 21 -26 22
-16 3z"/>
<path d="M2177 6829 c-15 -12 -45 -23 -67 -26 l-40 -6 0 -69 c0 -67 1 -69 23
-63 40 12 66 35 86 73 16 32 37 113 29 112 -2 0 -15 -10 -31 -21z"/>
<path d="M7800 6830 c-52 -27 -72 -53 -68 -91 4 -46 42 -71 108 -71 68 0 104
25 108 75 3 30 -2 39 -30 60 -54 42 -79 47 -118 27z"/>
<path d="M16367 6793 c-65 -4 -68 -5 -61 -26 35 -119 156 -140 204 -35 34 74
44 70 -143 61z"/>
<path d="M6622 6726 c-18 -20 -32 -41 -32 -46 0 -6 29 -10 65 -10 36 0 65 3
65 8 -1 4 -16 24 -34 45 l-32 39 -32 -36z"/>
<path d="M14871 6741 c-8 -5 -11 -16 -8 -24 27 -72 204 -62 215 12 3 20 0 21
-95 21 -54 0 -104 -4 -112 -9z"/>
<path d="M14462 6724 c2 -9 15 -26 29 -37 55 -40 177 -16 187 37 3 14 -10 16
-108 16 -98 0 -111 -2 -108 -16z"/>
<path d="M10190 6252 c-39 -19 -80 -88 -80 -134 l0 -28 37 20 c21 11 57 20 80
20 l43 0 0 64 c0 49 -4 65 -16 70 -22 9 -25 8 -64 -12z"/>
<path d="M17752 6255 c-49 -21 -72 -79 -72 -185 0 -109 25 -167 81 -188 31
-12 41 -11 73 2 53 22 76 77 76 186 0 108 -23 164 -74 185 -42 18 -42 18 -84
0z"/>
<path d="M6855 6235 c-34 -33 -35 -103 -2 -140 32 -38 101 -38 156 -2 36 24
39 28 32 59 -17 76 -53 108 -119 108 -32 0 -49 -6 -67 -25z"/>
<path d="M8218 6092 c-14 -6 -6 -20 45 -89 66 -90 77 -91 77 -10 0 38 -5 53
-25 72 -13 14 -31 25 -39 25 -8 0 -20 2 -28 4 -7 3 -21 2 -30 -2z"/>
<path d="M10189 6070 c-14 -4 -38 -15 -52 -25 -73 -48 14 -185 106 -168 l27 5
0 93 c0 88 -1 93 -22 99 -26 7 -25 7 -59 -4z"/>
<path d="M2073 5473 c-31 -6 -29 -24 6 -57 18 -17 44 -30 70 -33 40 -6 41 -5
41 25 0 45 -56 76 -117 65z"/>
<path d="M2843 5465 c-17 -7 -36 -23 -43 -34 -10 -21 -9 -21 85 -21 94 0 95 0
85 21 -10 18 -66 50 -87 49 -4 -1 -22 -7 -40 -15z"/>
<path d="M3683 5465 c-18 -8 -42 -29 -53 -47 -18 -29 -18 -33 -4 -36 28 -6 65
20 85 60 21 42 19 44 -28 23z"/>
<path d="M8887 5470 c-42 -12 -57 -29 -57 -61 l0 -29 90 0 90 0 0 30 c0 46
-64 77 -123 60z"/>
<path d="M12383 5469 c-34 -10 -63 -42 -63 -71 0 -16 11 -18 104 -18 97 0 104
1 99 19 -7 26 -53 67 -83 74 -14 2 -39 1 -57 -4z"/>
<path d="M14813 5465 c-17 -7 -36 -23 -43 -34 -10 -21 -9 -21 85 -21 94 0 95
0 85 21 -10 18 -66 50 -87 49 -4 -1 -22 -7 -40 -15z"/>
<path d="M15223 5469 c-18 -5 -39 -19 -48 -32 -14 -20 -14 -22 2 -29 25 -9
183 -10 183 0 0 15 -55 59 -80 65 -14 2 -39 1 -57 -4z"/>
<path d="M16822 5465 c-32 -14 -71 -77 -72 -116 0 -18 61 -29 168 -29 58 0 62
2 62 23 -1 46 -38 107 -74 122 -42 18 -42 18 -84 0z"/>
<path d="M3332 5420 c-16 -26 -15 -30 3 -30 9 0 15 9 15 25 0 30 -2 31 -18 5z"/>
<path d="M9356 5425 c-3 -8 -1 -15 4 -15 6 0 10 7 10 15 0 8 -2 15 -4 15 -2 0
-6 -7 -10 -15z"/>
<path d="M10007 5410 c-18 -29 -18 -30 2 -30 17 0 21 6 21 30 0 17 -1 30 -3
30 -1 0 -11 -13 -20 -30z"/>
<path d="M12862 5420 c-16 -26 -15 -30 3 -30 9 0 15 9 15 25 0 30 -2 31 -18 5z"/>
<path d="M15697 5410 c-18 -29 -18 -30 2 -30 17 0 21 6 21 30 0 17 -1 30 -3
30 -1 0 -11 -13 -20 -30z"/>
<path d="M7845 5183 c-30 -26 -65 -72 -65 -85 0 -5 55 -8 121 -8 l122 0 -64
60 c-35 32 -68 59 -74 59 -5 0 -23 -11 -40 -26z"/>
<path d="M10797 5154 c-37 -30 -67 -57 -67 -60 0 -14 63 0 84 19 21 18 64 97
53 97 -1 0 -33 -25 -70 -56z"/>
<path d="M4185 5124 c-9 -15 -12 -23 -6 -20 11 7 35 46 28 46 -3 0 -12 -12
-22 -26z"/>
</g>
</svg>
